# Blender v2.79 (sub 0) OBJ File: 'Road.blend'
# www.blender.org
v 0.000000 0.000000 5.000000
v -24.000000 0.000000 5.000000
v 0.000000 0.000000 0.000000
v -24.000000 0.000000 0.000000
v -24.000000 0.000000 5.000000
v -24.000000 0.000000 0.000000
v 0.000000 -1.786904 5.000000
v 0.000000 -1.786904 0.000000
v -24.000000 -1.786904 5.000000
v -24.000000 -1.786904 0.000000
v 1.000000 -1.786904 5.000000
v 1.000000 -1.786904 0.000000
v -25.000000 -1.786904 5.000000
v -25.000000 -1.786904 0.000000
v 1.000000 -1.786904 5.000000
v 1.000000 -1.786904 0.000000
v -25.000000 -1.786904 5.000000
v -25.000000 -1.786904 0.000000
v 1.000000 0.213096 5.000000
v 1.000000 0.213096 0.000000
v -25.000000 0.213096 5.000000
v -25.000000 0.213096 0.000000
v 48.000000 0.213096 5.000000
v 48.000000 0.213096 0.000000
v -72.000000 0.213096 5.000000
v -72.000000 0.213096 0.000000
vt 0.555575 0.000034
vt 0.442451 0.113158
vt 0.442451 0.000034
vt 0.555575 0.113158
vt 0.557549 0.000034
vt 0.557549 0.113158
vt 0.658620 0.113158
vt 0.341380 0.000034
vt 0.341380 0.113158
vt 0.336666 0.000034
vt 0.658620 0.000034
vt 0.663334 0.113158
vt 0.665308 0.000034
vt 0.665308 0.113158
vt 0.334692 0.113158
vt 0.334692 0.000034
vt 0.778432 0.113158
vt 0.221568 0.000034
vt 0.221568 0.113158
vt 0.000034 0.000034
vt 0.778432 0.000034
vt 0.999966 0.113158
vt 0.336666 0.113158
vt 0.663334 0.000034
vt 0.000034 0.113158
vt 0.999966 0.000034
vn 0.0000 -1.0000 0.0000
vn 0.0000 0.0000 1.0000
vn 1.0000 0.0000 0.0000
vn -1.0000 0.0000 0.0000
s off
f 2/1/1 3/2/1 1/3/1
f 4/4/2 5/5/2 6/6/2
f 5/5/3 10/7/3 6/6/3
f 3/2/4 7/8/4 1/3/4
f 8/9/1 11/10/1 7/8/1
f 9/11/1 14/12/1 10/7/1
f 14/12/2 17/13/2 18/14/2
f 11/10/2 16/15/2 15/16/2
f 17/13/4 22/17/4 18/14/4
f 16/15/3 19/18/3 15/16/3
f 20/19/1 23/20/1 19/18/1
f 21/21/1 26/22/1 22/17/1
f 2/1/1 4/4/1 3/2/1
f 4/4/2 2/1/2 5/5/2
f 5/5/3 9/11/3 10/7/3
f 3/2/4 8/9/4 7/8/4
f 8/9/1 12/23/1 11/10/1
f 9/11/1 13/24/1 14/12/1
f 14/12/2 13/24/2 17/13/2
f 11/10/2 12/23/2 16/15/2
f 17/13/4 21/21/4 22/17/4
f 16/15/3 20/19/3 19/18/3
f 20/19/1 24/25/1 23/20/1
f 21/21/1 25/26/1 26/22/1
