# Blender v2.79 (sub 0) OBJ File: ''
# www.blender.org
v -0.611534 -0.167886 1.330869
v -0.611534 -0.637834 1.404922
v 0.599707 -0.637834 1.404922
v 0.599707 -0.167886 1.330869
v -0.611534 -1.187857 1.054619
v 0.599707 -1.187857 1.054619
v 0.599707 -0.361248 -0.084903
v 0.599707 -0.167886 -0.084903
v 0.599707 -0.361248 -0.510943
v 0.599707 -0.167886 -0.510943
v 0.599707 -0.366300 -1.497282
v 0.599707 -0.167886 -1.497282
v 0.599707 -1.191709 -0.084903
v 0.599707 -0.690584 -0.510943
v 0.599707 -0.417482 -1.497282
v -0.611534 -0.366300 -1.497282
v -0.611534 -0.167886 -1.497282
v -0.611534 -0.417481 -1.497282
v -0.611534 -0.361248 -0.510943
v -0.611534 -0.167886 -0.510943
v -0.611534 -0.361248 -0.084903
v -0.611534 -0.167886 -0.084903
v -0.611534 -0.690583 -0.510943
v -0.611534 -1.191709 -0.084903
v 0.540993 -0.172805 -0.986391
v 0.540993 -0.172805 -1.157456
v 0.540993 -0.228097 -1.147139
v 0.637833 -0.172805 -1.157456
v 0.637833 -0.228097 -1.147139
v 0.637833 -0.172805 -0.986391
v 0.540993 -0.276720 -1.117434
v 0.637833 -0.276720 -1.117434
v 0.540993 -0.312809 -1.071923
v 0.637833 -0.312809 -1.071923
v 0.540993 -0.332012 -1.016096
v 0.637833 -0.332012 -1.016096
v 0.540993 -0.332012 -0.956686
v 0.637833 -0.332012 -0.956686
v 0.540993 -0.312809 -0.900859
v 0.637833 -0.312809 -0.900859
v 0.540993 -0.276720 -0.855348
v 0.637833 -0.276720 -0.855348
v 0.540993 -0.228097 -0.825643
v 0.637833 -0.228097 -0.825643
v 0.540993 -0.172805 -0.815327
v 0.637833 -0.172805 -0.815327
v 0.540993 -0.117513 -0.825643
v 0.637833 -0.117513 -0.825643
v 0.540993 -0.068891 -0.855348
v 0.637833 -0.068890 -0.855348
v 0.540993 -0.032801 -0.900859
v 0.637833 -0.032801 -0.900859
v 0.540993 -0.013599 -0.956686
v 0.637833 -0.013599 -0.956686
v 0.540993 -0.013599 -1.016096
v 0.637833 -0.013599 -1.016096
v 0.540993 -0.032801 -1.071923
v 0.637833 -0.032801 -1.071923
v 0.540993 -0.068891 -1.117434
v 0.637833 -0.068890 -1.117434
v 0.540993 -0.117513 -1.147139
v 0.637833 -0.117513 -1.147139
v -0.649006 -0.172805 -0.986391
v -0.649006 -0.172805 -1.157456
v -0.649006 -0.228097 -1.147139
v -0.552166 -0.172805 -1.157456
v -0.552166 -0.228097 -1.147139
v -0.552166 -0.172805 -0.986391
v -0.649006 -0.276720 -1.117434
v -0.552166 -0.276720 -1.117434
v -0.649006 -0.312809 -1.071923
v -0.552166 -0.312809 -1.071923
v -0.649006 -0.332012 -1.016096
v -0.552166 -0.332012 -1.016096
v -0.649006 -0.332012 -0.956686
v -0.552166 -0.332012 -0.956686
v -0.649006 -0.312809 -0.900859
v -0.552166 -0.312809 -0.900859
v -0.649006 -0.276720 -0.855348
v -0.552166 -0.276720 -0.855348
v -0.649006 -0.228097 -0.825643
v -0.552166 -0.228097 -0.825643
v -0.649006 -0.172805 -0.815327
v -0.552166 -0.172805 -0.815327
v -0.649006 -0.117513 -0.825643
v -0.552166 -0.117513 -0.825643
v -0.649006 -0.068890 -0.855348
v -0.552166 -0.068890 -0.855348
v -0.649006 -0.032801 -0.900859
v -0.552166 -0.032801 -0.900859
v -0.649006 -0.013598 -0.956686
v -0.552166 -0.013598 -0.956686
v -0.649006 -0.013598 -1.016096
v -0.552166 -0.013598 -1.016096
v -0.649006 -0.032801 -1.071923
v -0.552166 -0.032801 -1.071923
v -0.649006 -0.068890 -1.117434
v -0.552166 -0.068890 -1.117434
v -0.649006 -0.117513 -1.147139
v -0.552166 -0.117513 -1.147139
v 0.540993 -0.172805 0.936463
v 0.540993 -0.172805 0.765399
v 0.540993 -0.228097 0.775715
v 0.637833 -0.172805 0.765399
v 0.637833 -0.228097 0.775715
v 0.637833 -0.172805 0.936463
v 0.540993 -0.276720 0.805420
v 0.637833 -0.276720 0.805420
v 0.540993 -0.312809 0.850931
v 0.637833 -0.312809 0.850931
v 0.540993 -0.332012 0.906758
v 0.637833 -0.332012 0.906758
v 0.540993 -0.332012 0.966168
v 0.637833 -0.332012 0.966168
v 0.540993 -0.312809 1.021995
v 0.637833 -0.312809 1.021996
v 0.540993 -0.276720 1.067506
v 0.637833 -0.276720 1.067506
v 0.540993 -0.228097 1.097211
v 0.637833 -0.228097 1.097211
v 0.540993 -0.172805 1.107528
v 0.637833 -0.172805 1.107528
v 0.540993 -0.117513 1.097211
v 0.637833 -0.117513 1.097211
v 0.540993 -0.068891 1.067506
v 0.637833 -0.068891 1.067506
v 0.540993 -0.032801 1.021995
v 0.637833 -0.032801 1.021996
v 0.540993 -0.013599 0.966168
v 0.637833 -0.013599 0.966168
v 0.540993 -0.013599 0.906758
v 0.637833 -0.013599 0.906758
v 0.540993 -0.032801 0.850931
v 0.637833 -0.032801 0.850931
v 0.540993 -0.068891 0.805420
v 0.637833 -0.068891 0.805420
v 0.540993 -0.117513 0.775715
v 0.637833 -0.117513 0.775715
v -0.649006 -0.172805 0.936463
v -0.649006 -0.172805 0.765399
v -0.649006 -0.228097 0.775715
v -0.552166 -0.172805 0.765399
v -0.552166 -0.228097 0.775715
v -0.552166 -0.172805 0.936463
v -0.649006 -0.276720 0.805420
v -0.552166 -0.276720 0.805420
v -0.649006 -0.312809 0.850931
v -0.552166 -0.312809 0.850931
v -0.649006 -0.332012 0.906758
v -0.552166 -0.332012 0.906758
v -0.649006 -0.332012 0.966168
v -0.552166 -0.332012 0.966168
v -0.649006 -0.312809 1.021995
v -0.552166 -0.312809 1.021995
v -0.649006 -0.276720 1.067506
v -0.552166 -0.276720 1.067506
v -0.649006 -0.228097 1.097211
v -0.552166 -0.228097 1.097211
v -0.649006 -0.172805 1.107527
v -0.552166 -0.172805 1.107528
v -0.649006 -0.117513 1.097211
v -0.552166 -0.117513 1.097211
v -0.649006 -0.068890 1.067506
v -0.552166 -0.068890 1.067506
v -0.649006 -0.032801 1.021995
v -0.552166 -0.032801 1.021995
v -0.649006 -0.013599 0.966168
v -0.552166 -0.013599 0.966168
v -0.649006 -0.013599 0.906758
v -0.552166 -0.013599 0.906758
v -0.649006 -0.032801 0.850931
v -0.552166 -0.032801 0.850931
v -0.649006 -0.068890 0.805420
v -0.552166 -0.068890 0.805420
v -0.649006 -0.117513 0.775715
v -0.552166 -0.117513 0.775715
vt 0.821637 0.468250
vt 0.929639 0.721432
vt 0.929639 0.468250
vt 0.673600 0.468250
vt 0.821637 0.721432
vt 0.027636 0.237838
vt 0.371272 0.278256
vt 0.371272 0.237838
vt 0.474681 0.237838
vt 0.474681 0.278256
vt 0.714086 0.237838
vt 0.094687 0.451039
vt 0.009662 0.336070
vt 0.474681 0.347096
vt 0.714086 0.290010
vt 0.714086 0.279312
vt 0.763321 0.991020
vt 0.715162 0.737838
vt 0.715162 0.991020
vt 0.775743 0.991020
vt 0.763321 0.737838
vt 0.009662 0.007426
vt 0.249066 0.047843
vt 0.249066 0.007426
vt 0.352475 0.007426
vt 0.352475 0.047843
vt 0.696111 0.007426
vt 0.009662 0.059598
vt 0.009662 0.048899
vt 0.249066 0.116683
vt 0.629060 0.220627
vt 0.714086 0.105657
vt 0.397439 0.468250
vt 0.654549 0.721432
vt 0.654549 0.468250
vt 0.256731 0.468250
vt 0.397439 0.721432
vt 0.009662 0.721432
vt 0.256731 0.721432
vt 0.456707 0.737838
vt 0.696111 0.991020
vt 0.696111 0.737838
vt 0.353298 0.737838
vt 0.456707 0.991020
vt 0.009662 0.737838
vt 0.353298 0.991020
vt 0.876748 0.354079
vt 0.835228 0.354079
vt 0.837732 0.365636
vt 0.928843 0.424005
vt 0.941596 0.403763
vt 0.928843 0.403763
vt 0.877835 0.791816
vt 0.836314 0.791816
vt 0.875331 0.803373
vt 0.844942 0.375800
vt 0.941596 0.424005
vt 0.951912 0.403763
vt 0.868121 0.813537
vt 0.855988 0.383344
vt 0.937319 0.341043
vt 0.949672 0.320801
vt 0.937319 0.320801
vt 0.857075 0.821081
vt 0.869538 0.387358
vt 0.949672 0.341043
vt 0.963809 0.320801
vt 0.843525 0.825094
vt 0.883958 0.387358
vt 0.963809 0.341043
vt 0.978028 0.320801
vt 0.829104 0.825094
vt 0.897509 0.383344
vt 0.990611 0.341043
vt 0.990611 0.320801
vt 0.815554 0.821081
vt 0.908555 0.375800
vt 0.733136 0.221432
vt 0.743736 0.201190
vt 0.733136 0.201190
vt 0.804508 0.813537
vt 0.915765 0.365636
vt 0.743736 0.221432
vt 0.756640 0.201190
vt 0.797298 0.803373
vt 0.918269 0.354079
vt 0.770292 0.221432
vt 0.770292 0.201190
vt 0.794794 0.791816
vt 0.915765 0.342522
vt 0.783045 0.201190
vt 0.797298 0.780258
vt 0.908555 0.332358
vt 0.783045 0.221432
vt 0.793361 0.201190
vt 0.804508 0.770095
vt 0.897509 0.324814
vt 0.805478 0.184784
vt 0.817830 0.164542
vt 0.805478 0.164542
vt 0.815554 0.762551
vt 0.883958 0.320801
vt 0.831968 0.184784
vt 0.831968 0.164542
vt 0.829104 0.758537
vt 0.869538 0.320801
vt 0.846186 0.184784
vt 0.846186 0.164542
vt 0.843525 0.758537
vt 0.855988 0.324814
vt 0.858770 0.164542
vt 0.857075 0.762551
vt 0.844942 0.332358
vt 0.891687 0.424005
vt 0.902287 0.403763
vt 0.891687 0.403763
vt 0.868121 0.770095
vt 0.837732 0.342522
vt 0.902287 0.424005
vt 0.915191 0.403763
vt 0.875331 0.780258
vt 0.915191 0.424005
vt 0.876748 0.271116
vt 0.835228 0.271116
vt 0.837732 0.282674
vt 0.849568 0.221432
vt 0.862321 0.201190
vt 0.849568 0.201190
vt 0.979927 0.957741
vt 0.938406 0.957741
vt 0.977423 0.969299
vt 0.844942 0.292837
vt 0.862321 0.221432
vt 0.872637 0.201190
vt 0.970213 0.979462
vt 0.855988 0.300381
vt 0.937319 0.377691
vt 0.949672 0.357448
vt 0.937319 0.357448
vt 0.959167 0.987006
vt 0.869538 0.304395
vt 0.949672 0.377691
vt 0.963809 0.357448
vt 0.945616 0.991020
vt 0.883958 0.304395
vt 0.963809 0.377691
vt 0.978028 0.357448
vt 0.931196 0.991020
vt 0.897509 0.300381
vt 0.978028 0.377691
vt 0.990611 0.357448
vt 0.917646 0.987006
vt 0.908555 0.292837
vt 0.733136 0.424005
vt 0.743736 0.403763
vt 0.733136 0.403763
vt 0.906600 0.979462
vt 0.915765 0.282674
vt 0.743736 0.424005
vt 0.756640 0.403763
vt 0.899390 0.969299
vt 0.918269 0.271116
vt 0.770292 0.424005
vt 0.770292 0.403763
vt 0.896886 0.957741
vt 0.915765 0.259559
vt 0.783045 0.424005
vt 0.783045 0.403763
vt 0.899390 0.946184
vt 0.908555 0.249395
vt 0.793361 0.403763
vt 0.906600 0.936020
vt 0.897509 0.241852
vt 0.896886 0.778780
vt 0.909238 0.758537
vt 0.896886 0.758537
vt 0.917646 0.928477
vt 0.883958 0.237838
vt 0.923375 0.778780
vt 0.923375 0.758537
vt 0.931196 0.924463
vt 0.869538 0.237838
vt 0.937594 0.758538
vt 0.945616 0.924463
vt 0.855988 0.241852
vt 0.937594 0.778780
vt 0.950177 0.758538
vt 0.959167 0.928477
vt 0.844942 0.249395
vt 0.812411 0.221432
vt 0.823011 0.201190
vt 0.812411 0.201190
vt 0.970213 0.936020
vt 0.837732 0.259559
vt 0.823011 0.221432
vt 0.835916 0.201190
vt 0.977423 0.946184
vt 0.835916 0.221432
vt 0.836314 0.957741
vt 0.794794 0.957741
vt 0.797298 0.969299
vt 0.934042 0.908057
vt 0.946795 0.887815
vt 0.934042 0.887815
vt 0.877835 0.874779
vt 0.836314 0.874779
vt 0.875331 0.886336
vt 0.804508 0.979462
vt 0.946795 0.908057
vt 0.957111 0.887815
vt 0.868121 0.896500
vt 0.815554 0.987006
vt 0.937319 0.284153
vt 0.949672 0.304395
vt 0.949672 0.284153
vt 0.857075 0.904043
vt 0.829104 0.991020
vt 0.963809 0.284153
vt 0.843525 0.908057
vt 0.843525 0.991020
vt 0.963809 0.304395
vt 0.978028 0.284153
vt 0.829104 0.908057
vt 0.857075 0.987006
vt 0.990611 0.304395
vt 0.990611 0.284153
vt 0.815554 0.904043
vt 0.868121 0.979462
vt 0.896886 0.851167
vt 0.907486 0.871409
vt 0.907486 0.851167
vt 0.804508 0.896500
vt 0.875331 0.969299
vt 0.920390 0.851167
vt 0.797298 0.886336
vt 0.877835 0.957741
vt 0.920390 0.871409
vt 0.934042 0.851167
vt 0.794794 0.874779
vt 0.875331 0.946184
vt 0.934042 0.871409
vt 0.946795 0.851167
vt 0.797298 0.863221
vt 0.868121 0.936020
vt 0.946795 0.871409
vt 0.957111 0.851167
vt 0.804508 0.853058
vt 0.857075 0.928477
vt 0.877820 0.184784
vt 0.890172 0.164542
vt 0.877820 0.164542
vt 0.815554 0.845514
vt 0.843525 0.924463
vt 0.904310 0.184784
vt 0.904310 0.164542
vt 0.829104 0.841500
vt 0.829104 0.924463
vt 0.918528 0.164542
vt 0.843525 0.841500
vt 0.815554 0.928477
vt 0.918528 0.184784
vt 0.931112 0.164542
vt 0.857075 0.845514
vt 0.804508 0.936020
vt 0.896886 0.908057
vt 0.907486 0.887815
vt 0.896886 0.887815
vt 0.868121 0.853058
vt 0.797298 0.946184
vt 0.907486 0.908057
vt 0.920390 0.887815
vt 0.875331 0.863221
vt 0.920390 0.908057
vt 0.774657 0.354079
vt 0.733136 0.354079
vt 0.735640 0.365636
vt 0.928843 0.221432
vt 0.941596 0.201190
vt 0.928843 0.201190
vt 0.816177 0.271116
vt 0.774657 0.271116
vt 0.813673 0.282674
vt 0.742850 0.375800
vt 0.941596 0.221432
vt 0.951912 0.201190
vt 0.806463 0.292837
vt 0.753896 0.383344
vt 0.733136 0.184784
vt 0.745488 0.164542
vt 0.733136 0.164542
vt 0.795417 0.300381
vt 0.767447 0.387358
vt 0.759626 0.184784
vt 0.759626 0.164542
vt 0.781867 0.304395
vt 0.781867 0.387358
vt 0.773844 0.184784
vt 0.773844 0.164542
vt 0.767447 0.304395
vt 0.795417 0.383344
vt 0.786428 0.164542
vt 0.753896 0.300381
vt 0.806463 0.375800
vt 0.812411 0.424005
vt 0.823011 0.403763
vt 0.812411 0.403763
vt 0.742850 0.292837
vt 0.813673 0.365636
vt 0.835916 0.424005
vt 0.835916 0.403763
vt 0.735640 0.282674
vt 0.816177 0.354079
vt 0.849568 0.403763
vt 0.733136 0.271116
vt 0.813673 0.342522
vt 0.862321 0.424005
vt 0.862321 0.403763
vt 0.735640 0.259559
vt 0.806463 0.332358
vt 0.872637 0.403763
vt 0.742850 0.249395
vt 0.795417 0.324814
vt 0.896886 0.795185
vt 0.909238 0.815428
vt 0.909238 0.795185
vt 0.753896 0.241852
vt 0.781867 0.320801
vt 0.923375 0.815428
vt 0.923375 0.795185
vt 0.767447 0.237838
vt 0.767447 0.320801
vt 0.937594 0.795185
vt 0.781867 0.237838
vt 0.753896 0.324814
vt 0.937594 0.815428
vt 0.950177 0.795185
vt 0.795417 0.241852
vt 0.742850 0.332358
vt 0.891687 0.221432
vt 0.902287 0.201190
vt 0.891687 0.201190
vt 0.806463 0.249395
vt 0.735640 0.342522
vt 0.915191 0.221432
vt 0.915191 0.201190
vt 0.813673 0.259559
vt 0.673600 0.721432
vt 0.371272 0.451844
vt 0.775743 0.737838
vt 0.352475 0.221432
vt 0.009662 0.468250
vt 0.009662 0.991020
vt 0.951912 0.424005
vt 0.978028 0.341043
vt 0.756640 0.221432
vt 0.793361 0.221432
vt 0.817830 0.184784
vt 0.858770 0.184784
vt 0.872637 0.221432
vt 0.990611 0.377691
vt 0.756640 0.424005
vt 0.793361 0.424005
vt 0.909238 0.778780
vt 0.950177 0.778780
vt 0.957111 0.908057
vt 0.937319 0.304395
vt 0.978028 0.304395
vt 0.896886 0.871409
vt 0.957111 0.871409
vt 0.890172 0.184784
vt 0.931112 0.184784
vt 0.951912 0.221432
vt 0.745488 0.184784
vt 0.786428 0.184784
vt 0.823011 0.424005
vt 0.849568 0.424005
vt 0.872637 0.424005
vt 0.896886 0.815428
vt 0.950177 0.815428
vt 0.902287 0.221432
vn -0.0000 0.1557 0.9878
vn -0.0000 -0.5372 0.8435
vn 1.0000 -0.0000 -0.0000
vn -0.0000 -0.0000 -1.0000
vn -1.0000 -0.0000 0.0000
vn 0.0000 -1.0000 0.0034
vn -0.0000 -0.6477 -0.7619
vn -0.0000 -0.9637 -0.2668
vn 0.0000 1.0000 0.0000
vn 0.0000 -0.1834 -0.9830
vn 0.0000 -0.5213 -0.8534
vn 0.0000 -0.7835 -0.6213
vn 0.0000 -0.9456 -0.3253
vn -0.0000 -1.0000 0.0000
vn -0.0000 -0.9456 0.3253
vn 0.0000 -0.7835 0.6213
vn 0.0000 -0.5213 0.8534
vn 0.0000 -0.1834 0.9830
vn -0.0000 0.1834 0.9830
vn 0.0000 0.5213 0.8534
vn -0.0000 0.7835 0.6213
vn 0.0000 0.9456 0.3253
vn 0.0000 0.9456 -0.3253
vn 0.0000 0.7835 -0.6213
vn 0.0000 0.5213 -0.8534
vn 0.0000 0.1834 -0.9830
s off
f 2/1/1 4/2/1 1/3/1
f 5/4/2 3/5/2 2/1/2
f 4/6/3 7/7/3 8/8/3
f 7/7/3 10/9/3 8/8/3
f 9/10/3 12/11/3 10/9/3
f 6/12/3 7/7/3 3/13/3
f 7/7/3 14/14/3 9/10/3
f 9/10/3 15/15/3 11/16/3
f 11/17/4 17/18/4 12/19/4
f 15/20/4 16/21/4 11/17/4
f 17/22/5 19/23/5 20/24/5
f 19/23/5 22/25/5 20/24/5
f 21/26/5 1/27/5 22/25/5
f 18/28/5 19/23/5 16/29/5
f 23/30/5 21/26/5 19/23/5
f 21/26/5 5/31/5 2/32/5
f 24/33/6 6/34/6 5/35/6
f 23/36/7 13/37/7 24/33/7
f 23/36/8 15/38/8 14/39/8
f 20/40/9 12/41/9 17/42/9
f 22/43/9 10/44/9 20/40/9
f 1/45/9 8/46/9 22/43/9
f 25/47/5 26/48/5 27/49/5
f 28/50/10 27/51/10 26/52/10
f 28/53/3 30/54/3 29/55/3
f 25/47/5 27/49/5 31/56/5
f 29/57/11 31/58/11 27/51/11
f 29/55/3 30/54/3 32/59/3
f 25/47/5 31/56/5 33/60/5
f 32/61/12 33/62/12 31/63/12
f 32/59/3 30/54/3 34/64/3
f 25/47/5 33/60/5 35/65/5
f 34/66/13 35/67/13 33/62/13
f 34/64/3 30/54/3 36/68/3
f 25/47/5 35/65/5 37/69/5
f 36/70/14 37/71/14 35/67/14
f 36/68/3 30/54/3 38/72/3
f 25/47/5 37/69/5 39/73/5
f 37/71/15 40/74/15 39/75/15
f 38/72/3 30/54/3 40/76/3
f 25/47/5 39/73/5 41/77/5
f 40/78/16 41/79/16 39/80/16
f 40/76/3 30/54/3 42/81/3
f 25/47/5 41/77/5 43/82/5
f 42/83/17 43/84/17 41/79/17
f 42/81/3 30/54/3 44/85/3
f 25/47/5 43/82/5 45/86/5
f 43/84/18 46/87/18 45/88/18
f 44/85/3 30/54/3 46/89/3
f 25/47/5 45/86/5 47/90/5
f 46/87/19 47/91/19 45/88/19
f 46/89/3 30/54/3 48/92/3
f 25/47/5 47/90/5 49/93/5
f 48/94/20 49/95/20 47/91/20
f 48/92/3 30/54/3 50/96/3
f 25/47/5 49/93/5 51/97/5
f 50/98/21 51/99/21 49/100/21
f 50/96/3 30/54/3 52/101/3
f 25/47/5 51/97/5 53/102/5
f 51/99/22 54/103/22 53/104/22
f 52/101/3 30/54/3 54/105/3
f 25/47/5 53/102/5 55/106/5
f 53/104/9 56/107/9 55/108/9
f 54/105/3 30/54/3 56/109/3
f 25/47/5 55/106/5 57/110/5
f 56/107/23 57/111/23 55/108/23
f 56/109/3 30/54/3 58/112/3
f 25/47/5 57/110/5 59/113/5
f 58/114/24 59/115/24 57/116/24
f 58/112/3 30/54/3 60/117/3
f 25/47/5 59/113/5 61/118/5
f 60/119/25 61/120/25 59/115/25
f 60/117/3 30/54/3 62/121/3
f 25/47/5 61/118/5 26/48/5
f 62/122/26 26/52/26 61/120/26
f 62/121/3 30/54/3 28/53/3
f 63/123/5 64/124/5 65/125/5
f 66/126/10 65/127/10 64/128/10
f 66/129/3 68/130/3 67/131/3
f 63/123/5 65/125/5 69/132/5
f 67/133/11 69/134/11 65/127/11
f 67/131/3 68/130/3 70/135/3
f 63/123/5 69/132/5 71/136/5
f 70/137/12 71/138/12 69/139/12
f 70/135/3 68/130/3 72/140/3
f 63/123/5 71/136/5 73/141/5
f 72/142/13 73/143/13 71/138/13
f 72/140/3 68/130/3 74/144/3
f 63/123/5 73/141/5 75/145/5
f 74/146/14 75/147/14 73/143/14
f 74/144/3 68/130/3 76/148/3
f 63/123/5 75/145/5 77/149/5
f 76/150/15 77/151/15 75/147/15
f 76/148/3 68/130/3 78/152/3
f 63/123/5 77/149/5 79/153/5
f 78/154/16 79/155/16 77/156/16
f 78/152/3 68/130/3 80/157/3
f 63/123/5 79/153/5 81/158/5
f 80/159/17 81/160/17 79/155/17
f 80/157/3 68/130/3 82/161/3
f 63/123/5 81/158/5 83/162/5
f 81/160/18 84/163/18 83/164/18
f 82/161/3 68/130/3 84/165/3
f 63/123/5 83/162/5 85/166/5
f 83/164/19 86/167/19 85/168/19
f 84/165/3 68/130/3 86/169/3
f 63/123/5 85/166/5 87/170/5
f 86/167/20 87/171/20 85/168/20
f 86/169/3 68/130/3 88/172/3
f 63/123/5 87/170/5 89/173/5
f 88/174/21 89/175/21 87/176/21
f 88/172/3 68/130/3 90/177/3
f 63/123/5 89/173/5 91/178/5
f 89/175/22 92/179/22 91/180/22
f 90/177/3 68/130/3 92/181/3
f 63/123/5 91/178/5 93/182/5
f 92/179/9 93/183/9 91/180/9
f 92/181/3 68/130/3 94/184/3
f 63/123/5 93/182/5 95/185/5
f 94/186/23 95/187/23 93/183/23
f 94/184/3 68/130/3 96/188/3
f 63/123/5 95/185/5 97/189/5
f 96/190/24 97/191/24 95/192/24
f 96/188/3 68/130/3 98/193/3
f 63/123/5 97/189/5 99/194/5
f 98/195/25 99/196/25 97/191/25
f 98/193/3 68/130/3 100/197/3
f 63/123/5 99/194/5 64/124/5
f 100/198/26 64/128/26 99/196/26
f 100/197/3 68/130/3 66/129/3
f 101/199/5 102/200/5 103/201/5
f 104/202/10 103/203/10 102/204/10
f 104/205/3 106/206/3 105/207/3
f 101/199/5 103/201/5 107/208/5
f 105/209/11 107/210/11 103/203/11
f 105/207/3 106/206/3 108/211/3
f 101/199/5 107/208/5 109/212/5
f 107/213/12 110/214/12 109/215/12
f 108/211/3 106/206/3 110/216/3
f 101/199/5 109/212/5 111/217/5
f 110/214/13 111/218/13 109/215/13
f 110/216/3 106/206/3 112/219/3
f 101/199/5 111/217/5 113/220/5
f 112/221/14 113/222/14 111/218/14
f 112/219/3 106/206/3 114/223/3
f 101/199/5 113/220/5 115/224/5
f 113/222/15 116/225/15 115/226/15
f 114/223/3 106/206/3 116/227/3
f 101/199/5 115/224/5 117/228/5
f 115/229/16 118/230/16 117/231/16
f 116/227/3 106/206/3 118/232/3
f 101/199/5 117/228/5 119/233/5
f 118/230/17 119/234/17 117/231/17
f 118/232/3 106/206/3 120/235/3
f 101/199/5 119/233/5 121/236/5
f 120/237/18 121/238/18 119/234/18
f 120/235/3 106/206/3 122/239/3
f 101/199/5 121/236/5 123/240/5
f 122/241/19 123/242/19 121/238/19
f 122/239/3 106/206/3 124/243/3
f 101/199/5 123/240/5 125/244/5
f 124/245/20 125/246/20 123/242/20
f 124/243/3 106/206/3 126/247/3
f 101/199/5 125/244/5 127/248/5
f 126/249/21 127/250/21 125/251/21
f 126/247/3 106/206/3 128/252/3
f 101/199/5 127/248/5 129/253/5
f 127/250/22 130/254/22 129/255/22
f 128/252/3 106/206/3 130/256/3
f 101/199/5 129/253/5 131/257/5
f 130/254/9 131/258/9 129/255/9
f 130/256/3 106/206/3 132/259/3
f 101/199/5 131/257/5 133/260/5
f 132/261/23 133/262/23 131/258/23
f 132/259/3 106/206/3 134/263/3
f 101/199/5 133/260/5 135/264/5
f 134/265/24 135/266/24 133/267/24
f 134/263/3 106/206/3 136/268/3
f 101/199/5 135/264/5 137/269/5
f 136/270/25 137/271/25 135/266/25
f 136/268/3 106/206/3 138/272/3
f 101/199/5 137/269/5 102/200/5
f 138/273/26 102/204/26 137/271/26
f 138/272/3 106/206/3 104/205/3
f 139/274/5 140/275/5 141/276/5
f 142/277/10 141/278/10 140/279/10
f 142/280/3 144/281/3 143/282/3
f 139/274/5 141/276/5 145/283/5
f 143/284/11 145/285/11 141/278/11
f 143/282/3 144/281/3 146/286/3
f 139/274/5 145/283/5 147/287/5
f 146/288/12 147/289/12 145/290/12
f 146/286/3 144/281/3 148/291/3
f 139/274/5 147/287/5 149/292/5
f 147/289/13 150/293/13 149/294/13
f 148/291/3 144/281/3 150/295/3
f 139/274/5 149/292/5 151/296/5
f 149/294/14 152/297/14 151/298/14
f 150/295/3 144/281/3 152/299/3
f 139/274/5 151/296/5 153/300/5
f 152/297/15 153/301/15 151/298/15
f 152/299/3 144/281/3 154/302/3
f 139/274/5 153/300/5 155/303/5
f 154/304/16 155/305/16 153/306/16
f 154/302/3 144/281/3 156/307/3
f 139/274/5 155/303/5 157/308/5
f 155/305/17 158/309/17 157/310/17
f 156/307/3 144/281/3 158/311/3
f 139/274/5 157/308/5 159/312/5
f 158/309/18 159/313/18 157/310/18
f 158/311/3 144/281/3 160/314/3
f 139/274/5 159/312/5 161/315/5
f 159/313/19 162/316/19 161/317/19
f 160/314/3 144/281/3 162/318/3
f 139/274/5 161/315/5 163/319/5
f 162/316/20 163/320/20 161/317/20
f 162/318/3 144/281/3 164/321/3
f 139/274/5 163/319/5 165/322/5
f 163/323/21 166/324/21 165/325/21
f 164/321/3 144/281/3 166/326/3
f 139/274/5 165/322/5 167/327/5
f 165/325/22 168/328/22 167/329/22
f 166/326/3 144/281/3 168/330/3
f 139/274/5 167/327/5 169/331/5
f 168/328/9 169/332/9 167/329/9
f 168/330/3 144/281/3 170/333/3
f 139/274/5 169/331/5 171/334/5
f 170/335/23 171/336/23 169/332/23
f 170/333/3 144/281/3 172/337/3
f 139/274/5 171/334/5 173/338/5
f 172/339/24 173/340/24 171/341/24
f 172/337/3 144/281/3 174/342/3
f 139/274/5 173/338/5 175/343/5
f 173/340/25 176/344/25 175/345/25
f 174/342/3 144/281/3 176/346/3
f 139/274/5 175/343/5 140/275/5
f 176/344/26 140/279/26 175/345/26
f 176/346/3 144/281/3 142/280/3
f 2/1/1 3/5/1 4/2/1
f 5/4/2 6/347/2 3/5/2
f 4/6/3 3/13/3 7/7/3
f 7/7/3 9/10/3 10/9/3
f 9/10/3 11/16/3 12/11/3
f 6/12/3 13/348/3 7/7/3
f 7/7/3 13/348/3 14/14/3
f 9/10/3 14/14/3 15/15/3
f 11/17/4 16/21/4 17/18/4
f 15/20/4 18/349/4 16/21/4
f 17/22/5 16/29/5 19/23/5
f 19/23/5 21/26/5 22/25/5
f 21/26/5 2/32/5 1/27/5
f 18/28/5 23/30/5 19/23/5
f 23/30/5 24/350/5 21/26/5
f 21/26/5 24/350/5 5/31/5
f 24/33/6 13/37/6 6/34/6
f 23/36/7 14/39/7 13/37/7
f 23/36/8 18/351/8 15/38/8
f 20/40/9 10/44/9 12/41/9
f 22/43/9 8/46/9 10/44/9
f 1/45/9 4/352/9 8/46/9
f 28/50/10 29/57/10 27/51/10
f 29/57/11 32/353/11 31/58/11
f 32/61/12 34/66/12 33/62/12
f 34/66/13 36/70/13 35/67/13
f 36/70/14 38/354/14 37/71/14
f 37/71/15 38/354/15 40/74/15
f 40/78/16 42/83/16 41/79/16
f 42/83/17 44/355/17 43/84/17
f 43/84/18 44/355/18 46/87/18
f 46/87/19 48/94/19 47/91/19
f 48/94/20 50/356/20 49/95/20
f 50/98/21 52/357/21 51/99/21
f 51/99/22 52/357/22 54/103/22
f 53/104/9 54/103/9 56/107/9
f 56/107/23 58/358/23 57/111/23
f 58/114/24 60/119/24 59/115/24
f 60/119/25 62/122/25 61/120/25
f 62/122/26 28/50/26 26/52/26
f 66/126/10 67/133/10 65/127/10
f 67/133/11 70/359/11 69/134/11
f 70/137/12 72/142/12 71/138/12
f 72/142/13 74/146/13 73/143/13
f 74/146/14 76/150/14 75/147/14
f 76/150/15 78/360/15 77/151/15
f 78/154/16 80/159/16 79/155/16
f 80/159/17 82/361/17 81/160/17
f 81/160/18 82/361/18 84/163/18
f 83/164/19 84/163/19 86/167/19
f 86/167/20 88/362/20 87/171/20
f 88/174/21 90/363/21 89/175/21
f 89/175/22 90/363/22 92/179/22
f 92/179/9 94/186/9 93/183/9
f 94/186/23 96/364/23 95/187/23
f 96/190/24 98/195/24 97/191/24
f 98/195/25 100/198/25 99/196/25
f 100/198/26 66/126/26 64/128/26
f 104/202/10 105/209/10 103/203/10
f 105/209/11 108/365/11 107/210/11
f 107/213/12 108/366/12 110/214/12
f 110/214/13 112/221/13 111/218/13
f 112/221/14 114/367/14 113/222/14
f 113/222/15 114/367/15 116/225/15
f 115/229/16 116/368/16 118/230/16
f 118/230/17 120/237/17 119/234/17
f 120/237/18 122/241/18 121/238/18
f 122/241/19 124/245/19 123/242/19
f 124/245/20 126/369/20 125/246/20
f 126/249/21 128/370/21 127/250/21
f 127/250/22 128/370/22 130/254/22
f 130/254/9 132/261/9 131/258/9
f 132/261/23 134/371/23 133/262/23
f 134/265/24 136/270/24 135/266/24
f 136/270/25 138/273/25 137/271/25
f 138/273/26 104/202/26 102/204/26
f 142/277/10 143/284/10 141/278/10
f 143/284/11 146/372/11 145/285/11
f 146/288/12 148/373/12 147/289/12
f 147/289/13 148/373/13 150/293/13
f 149/294/14 150/293/14 152/297/14
f 152/297/15 154/374/15 153/301/15
f 154/304/16 156/375/16 155/305/16
f 155/305/17 156/375/17 158/309/17
f 158/309/18 160/376/18 159/313/18
f 159/313/19 160/376/19 162/316/19
f 162/316/20 164/377/20 163/320/20
f 163/323/21 164/378/21 166/324/21
f 165/325/22 166/324/22 168/328/22
f 168/328/9 170/335/9 169/332/9
f 170/335/23 172/379/23 171/336/23
f 172/339/24 174/380/24 173/340/24
f 173/340/25 174/380/25 176/344/25
f 176/344/26 142/277/26 140/279/26
