# Blender v2.79 (sub 0) OBJ File: ''
# www.blender.org
v -0.707132 -0.502878 2.542178
v -0.707132 -1.382672 2.542178
v 0.745142 -1.382672 2.542177
v 0.745142 -0.502879 2.542178
v 0.745142 -1.382672 -2.169336
v 0.745142 -0.502879 -2.169336
v 0.745142 -0.190962 -2.509478
v 0.745142 -0.502879 -2.509478
v -0.707132 -0.502878 -2.509478
v -0.707132 -0.190962 -2.509478
v -0.707132 -0.190962 -2.169336
v -0.707132 -0.502879 -2.169336
v -0.707132 -0.190962 2.542178
v -0.707132 -1.382671 -2.169336
v 0.745142 -0.190962 2.542178
v 0.745142 -0.190962 -2.169336
v -0.707132 -1.382671 -2.224625
v 0.745142 -1.382672 -2.224625
v -0.615416 -0.208609 1.503888
v -0.615416 -0.208609 1.714749
v -0.615416 -0.276763 1.702032
v -0.748237 -0.208608 1.714749
v -0.748237 -0.276763 1.702032
v -0.748237 -0.208608 1.503888
v -0.615416 -0.336697 1.665416
v -0.748237 -0.336697 1.665416
v -0.615416 -0.381181 1.609319
v -0.748237 -0.381181 1.609319
v -0.615416 -0.404851 1.540504
v -0.748237 -0.404851 1.540504
v -0.615416 -0.404851 1.467274
v -0.748237 -0.404851 1.467274
v -0.615416 -0.381181 1.398460
v -0.748237 -0.381181 1.398460
v -0.615416 -0.336697 1.342362
v -0.748237 -0.336697 1.342362
v -0.615416 -0.276763 1.305747
v -0.748237 -0.276763 1.305747
v -0.615416 -0.208609 1.293029
v -0.748237 -0.208608 1.293029
v -0.615416 -0.140454 1.305747
v -0.748237 -0.140454 1.305747
v -0.615416 -0.080520 1.342362
v -0.748237 -0.080520 1.342362
v -0.615416 -0.036036 1.398460
v -0.748237 -0.036036 1.398460
v -0.615416 -0.012366 1.467274
v -0.748237 -0.012366 1.467274
v -0.615416 -0.012366 1.540504
v -0.748237 -0.012366 1.540504
v -0.615416 -0.036036 1.609319
v -0.748237 -0.036036 1.609319
v -0.615416 -0.080520 1.665416
v -0.748237 -0.080520 1.665416
v -0.615416 -0.140454 1.702032
v -0.748237 -0.140454 1.702032
v 0.806159 -0.208609 1.503889
v 0.806159 -0.208609 1.714749
v 0.806159 -0.276763 1.702032
v 0.673338 -0.208609 1.714749
v 0.673338 -0.276763 1.702032
v 0.673338 -0.208609 1.503888
v 0.806159 -0.336697 1.665416
v 0.673338 -0.336697 1.665416
v 0.806159 -0.381182 1.609319
v 0.673338 -0.381182 1.609319
v 0.806159 -0.404851 1.540504
v 0.673338 -0.404851 1.540504
v 0.806159 -0.404851 1.467274
v 0.673338 -0.404851 1.467274
v 0.806159 -0.381182 1.398460
v 0.673338 -0.381182 1.398460
v 0.806159 -0.336697 1.342361
v 0.673338 -0.336697 1.342362
v 0.806159 -0.276763 1.305747
v 0.673338 -0.276763 1.305747
v 0.806159 -0.208609 1.293029
v 0.673338 -0.208609 1.293029
v 0.806159 -0.140454 1.305747
v 0.673338 -0.140454 1.305747
v 0.806159 -0.080520 1.342361
v 0.673338 -0.080520 1.342362
v 0.806159 -0.036036 1.398460
v 0.673338 -0.036036 1.398460
v 0.806159 -0.012366 1.467274
v 0.673338 -0.012366 1.467274
v 0.806159 -0.012366 1.540504
v 0.673338 -0.012366 1.540504
v 0.806159 -0.036036 1.609319
v 0.673338 -0.036036 1.609319
v 0.806159 -0.080520 1.665416
v 0.673338 -0.080520 1.665416
v 0.806159 -0.140454 1.702032
v 0.673338 -0.140454 1.702032
v -0.637130 -0.198386 -1.615535
v -0.637130 -0.198386 -1.404676
v -0.637130 -0.266540 -1.417394
v -0.769951 -0.198386 -1.404676
v -0.769951 -0.266540 -1.417394
v -0.769951 -0.198386 -1.615535
v -0.637130 -0.326474 -1.454008
v -0.769951 -0.326474 -1.454008
v -0.637130 -0.370959 -1.510106
v -0.769951 -0.370959 -1.510107
v -0.637130 -0.394629 -1.578921
v -0.769951 -0.394629 -1.578921
v -0.637130 -0.394629 -1.652150
v -0.769951 -0.394629 -1.652150
v -0.637130 -0.370959 -1.720965
v -0.769951 -0.370959 -1.720965
v -0.637130 -0.326474 -1.777063
v -0.769951 -0.326474 -1.777063
v -0.637130 -0.266540 -1.813678
v -0.769951 -0.266540 -1.813678
v -0.637130 -0.198386 -1.826393
v -0.769951 -0.198386 -1.826393
v -0.637130 -0.130232 -1.813678
v -0.769951 -0.130231 -1.813678
v -0.637130 -0.070298 -1.777063
v -0.769951 -0.070298 -1.777063
v -0.637130 -0.025813 -1.720965
v -0.769951 -0.025813 -1.720965
v -0.637130 -0.002143 -1.652150
v -0.769951 -0.002143 -1.652150
v -0.637130 -0.002143 -1.578921
v -0.769951 -0.002143 -1.578921
v -0.637130 -0.025813 -1.510106
v -0.769951 -0.025813 -1.510107
v -0.637130 -0.070298 -1.454008
v -0.769951 -0.070298 -1.454008
v -0.637130 -0.130232 -1.417394
v -0.769951 -0.130231 -1.417394
v 0.784446 -0.198386 -1.615535
v 0.784446 -0.198386 -1.404676
v 0.784446 -0.266540 -1.417394
v 0.651624 -0.198386 -1.404676
v 0.651624 -0.266540 -1.417394
v 0.651624 -0.198386 -1.615535
v 0.784446 -0.326474 -1.454008
v 0.651624 -0.326474 -1.454008
v 0.784446 -0.370959 -1.510106
v 0.651624 -0.370959 -1.510106
v 0.784446 -0.394629 -1.578921
v 0.651624 -0.394629 -1.578921
v 0.784446 -0.394629 -1.652150
v 0.651624 -0.394629 -1.652150
v 0.784446 -0.370959 -1.720965
v 0.651624 -0.370959 -1.720965
v 0.784446 -0.326474 -1.777063
v 0.651624 -0.326474 -1.777063
v 0.784446 -0.266540 -1.813678
v 0.651624 -0.266540 -1.813678
v 0.784446 -0.198386 -1.826393
v 0.651624 -0.198386 -1.826393
v 0.784446 -0.130232 -1.813678
v 0.651624 -0.130232 -1.813678
v 0.784446 -0.070298 -1.777063
v 0.651624 -0.070298 -1.777063
v 0.784446 -0.025813 -1.720965
v 0.651624 -0.025813 -1.720965
v 0.784446 -0.002143 -1.652150
v 0.651624 -0.002143 -1.652150
v 0.784446 -0.002143 -1.578921
v 0.651624 -0.002143 -1.578921
v 0.784446 -0.025813 -1.510106
v 0.651624 -0.025813 -1.510106
v 0.784446 -0.070298 -1.454008
v 0.651624 -0.070298 -1.454008
v 0.784446 -0.130232 -1.417394
v 0.651624 -0.130232 -1.417394
vt 0.807742 0.747534
vt 0.943750 0.990223
vt 0.943750 0.747534
vt 0.009386 0.320170
vt 0.737743 0.467192
vt 0.737743 0.320170
vt 0.811336 0.728708
vt 0.763706 0.486019
vt 0.763706 0.728708
vt 0.061969 0.102197
vt 0.790326 0.050072
vt 0.061969 0.050072
vt 0.017933 0.486019
vt 0.746290 0.728708
vt 0.746290 0.486019
vt 0.009386 0.747534
vt 0.737743 0.990223
vt 0.737743 0.747534
vt 0.790326 0.990223
vt 0.053421 0.249219
vt 0.009386 0.102197
vt 0.009386 0.486019
vt 0.017933 0.728708
vt 0.790326 0.268045
vt 0.790326 0.320170
vt 0.991969 0.990223
vt 0.061969 0.249219
vt 0.790326 0.102197
vt 0.952547 0.728708
vt 0.811336 0.486019
vt 0.746290 0.467192
vt 0.922949 0.300840
vt 0.890352 0.300840
vt 0.892318 0.312229
vt 0.472174 0.009050
vt 0.461456 0.031246
vt 0.472174 0.031246
vt 0.955546 0.216425
vt 0.922949 0.216425
vt 0.953580 0.227814
vt 0.897978 0.322244
vt 0.451325 0.009050
vt 0.451325 0.031246
vt 0.947919 0.237830
vt 0.906650 0.329678
vt 0.443003 0.031246
vt 0.939247 0.245263
vt 0.917288 0.333634
vt 0.608793 0.009050
vt 0.598914 0.031246
vt 0.608793 0.031246
vt 0.928609 0.249219
vt 0.928609 0.333634
vt 0.598914 0.009050
vt 0.587752 0.031246
vt 0.917288 0.249219
vt 0.939247 0.329678
vt 0.587752 0.009050
vt 0.576652 0.031246
vt 0.906650 0.245263
vt 0.947919 0.322244
vt 0.576652 0.009050
vt 0.566955 0.031246
vt 0.897978 0.237830
vt 0.953580 0.312229
vt 0.425587 0.009050
vt 0.417488 0.031246
vt 0.425587 0.031246
vt 0.892318 0.227814
vt 0.955546 0.300840
vt 0.417488 0.009050
vt 0.407476 0.031246
vt 0.890352 0.216425
vt 0.953580 0.289450
vt 0.407476 0.009050
vt 0.396758 0.031246
vt 0.892318 0.205035
vt 0.947919 0.279435
vt 0.396758 0.009050
vt 0.386628 0.031246
vt 0.897978 0.195020
vt 0.939247 0.272001
vt 0.386628 0.009050
vt 0.378306 0.031246
vt 0.906650 0.187586
vt 0.928609 0.268045
vt 0.549539 0.009050
vt 0.539660 0.031246
vt 0.549539 0.031246
vt 0.917288 0.183631
vt 0.917288 0.268045
vt 0.539660 0.009050
vt 0.528497 0.031246
vt 0.928609 0.183631
vt 0.906650 0.272001
vt 0.517398 0.009050
vt 0.517398 0.031246
vt 0.939247 0.187586
vt 0.897978 0.279435
vt 0.507701 0.031246
vt 0.947919 0.195020
vt 0.892318 0.289450
vt 0.490285 0.009050
vt 0.482186 0.031246
vt 0.490285 0.031246
vt 0.953580 0.205035
vt 0.840339 0.300840
vt 0.807742 0.300840
vt 0.809708 0.312229
vt 0.911210 0.164804
vt 0.900492 0.142608
vt 0.900492 0.164804
vt 0.872936 0.385254
vt 0.840339 0.385254
vt 0.870970 0.396644
vt 0.815368 0.322244
vt 0.890352 0.164804
vt 0.865309 0.406659
vt 0.824040 0.329678
vt 0.360889 0.009050
vt 0.353503 0.031246
vt 0.360889 0.031246
vt 0.856637 0.414093
vt 0.834678 0.333634
vt 0.353503 0.009050
vt 0.343636 0.031246
vt 0.845999 0.418048
vt 0.845999 0.333634
vt 0.332478 0.009050
vt 0.332478 0.031246
vt 0.834678 0.418048
vt 0.856637 0.329678
vt 0.321375 0.031246
vt 0.824040 0.414093
vt 0.865309 0.322244
vt 0.311666 0.009050
vt 0.311666 0.031246
vt 0.815368 0.406659
vt 0.870970 0.312229
vt 0.304522 0.031246
vt 0.809708 0.396644
vt 0.872936 0.300840
vt 0.705347 0.009050
vt 0.695344 0.031246
vt 0.705347 0.031246
vt 0.807742 0.385254
vt 0.870970 0.289450
vt 0.695344 0.009050
vt 0.684626 0.031246
vt 0.809708 0.373865
vt 0.865309 0.279435
vt 0.684626 0.009050
vt 0.674486 0.031246
vt 0.815368 0.363850
vt 0.856637 0.272001
vt 0.139537 0.031246
vt 0.132151 0.009050
vt 0.132151 0.031246
vt 0.824040 0.356416
vt 0.845999 0.268045
vt 0.122284 0.031246
vt 0.834678 0.352460
vt 0.834678 0.268045
vt 0.122284 0.009050
vt 0.111126 0.031246
vt 0.845999 0.352460
vt 0.824040 0.272001
vt 0.100023 0.009050
vt 0.100023 0.031246
vt 0.856637 0.356416
vt 0.815368 0.279435
vt 0.090314 0.031246
vt 0.865309 0.363850
vt 0.809708 0.289450
vt 0.090314 0.009050
vt 0.083170 0.031246
vt 0.870970 0.373865
vt 0.921213 0.142608
vt 0.921213 0.164804
vt 0.840339 0.047595
vt 0.807742 0.047595
vt 0.809708 0.058984
vt 0.647067 0.009050
vt 0.636349 0.031246
vt 0.647067 0.031246
vt 0.955546 0.385254
vt 0.922949 0.385254
vt 0.953580 0.396644
vt 0.815368 0.069000
vt 0.636349 0.009050
vt 0.626209 0.031246
vt 0.947919 0.406659
vt 0.824040 0.076434
vt 0.065753 0.009050
vt 0.058367 0.031246
vt 0.065753 0.031246
vt 0.939247 0.414093
vt 0.834678 0.080389
vt 0.058367 0.009050
vt 0.048500 0.031246
vt 0.928609 0.418048
vt 0.845999 0.080389
vt 0.048500 0.009050
vt 0.037342 0.031246
vt 0.917288 0.418048
vt 0.856637 0.076434
vt 0.037342 0.009050
vt 0.026239 0.031246
vt 0.906650 0.414093
vt 0.865309 0.069000
vt 0.026239 0.009050
vt 0.016530 0.031246
vt 0.897978 0.406659
vt 0.870970 0.058984
vt 0.016530 0.009050
vt 0.009386 0.031246
vt 0.892318 0.396644
vt 0.872936 0.047595
vt 0.912387 0.436875
vt 0.902384 0.459071
vt 0.912387 0.459071
vt 0.890352 0.385254
vt 0.870970 0.036206
vt 0.902384 0.436875
vt 0.891666 0.459071
vt 0.892318 0.373865
vt 0.865309 0.026190
vt 0.891666 0.436875
vt 0.881526 0.459071
vt 0.897978 0.363850
vt 0.856637 0.018757
vt 0.864110 0.459071
vt 0.856724 0.436875
vt 0.856724 0.459071
vt 0.906650 0.356416
vt 0.845999 0.014801
vt 0.846856 0.459071
vt 0.917288 0.352460
vt 0.834678 0.014801
vt 0.846856 0.436875
vt 0.835698 0.459071
vt 0.928609 0.352460
vt 0.824040 0.018757
vt 0.824595 0.436875
vt 0.824595 0.459071
vt 0.939247 0.356416
vt 0.815368 0.026190
vt 0.814886 0.436875
vt 0.814886 0.459071
vt 0.947919 0.363850
vt 0.809708 0.036206
vt 0.807742 0.459071
vt 0.953580 0.373865
vt 0.657070 0.031246
vt 0.840339 0.216425
vt 0.807742 0.216425
vt 0.809708 0.227814
vt 0.911210 0.101586
vt 0.900492 0.123782
vt 0.911210 0.123782
vt 0.872936 0.132010
vt 0.840339 0.132010
vt 0.870970 0.143399
vt 0.815368 0.237830
vt 0.890352 0.101586
vt 0.890352 0.123782
vt 0.865309 0.153415
vt 0.824040 0.245263
vt 0.287106 0.009050
vt 0.279719 0.031246
vt 0.287106 0.031246
vt 0.856637 0.160849
vt 0.834678 0.249219
vt 0.269852 0.009050
vt 0.269852 0.031246
vt 0.845999 0.164804
vt 0.845999 0.249219
vt 0.258694 0.031246
vt 0.834678 0.164804
vt 0.856637 0.245263
vt 0.258694 0.009050
vt 0.247591 0.031246
vt 0.824040 0.160849
vt 0.865309 0.237830
vt 0.237882 0.009050
vt 0.237882 0.031246
vt 0.815368 0.153415
vt 0.870970 0.227814
vt 0.230738 0.031246
vt 0.809708 0.143399
vt 0.872936 0.216425
vt 0.753624 0.009050
vt 0.743621 0.031246
vt 0.753624 0.031246
vt 0.807742 0.132010
vt 0.870970 0.205035
vt 0.743621 0.009050
vt 0.732904 0.031246
vt 0.809708 0.120621
vt 0.865309 0.195020
vt 0.732904 0.009050
vt 0.722764 0.031246
vt 0.815368 0.110605
vt 0.856637 0.187586
vt 0.213321 0.031246
vt 0.205935 0.009050
vt 0.205935 0.031246
vt 0.824040 0.103171
vt 0.845999 0.183631
vt 0.196068 0.031246
vt 0.834678 0.099216
vt 0.834678 0.183631
vt 0.196068 0.009050
vt 0.184910 0.031246
vt 0.845999 0.099216
vt 0.824040 0.187586
vt 0.173807 0.009050
vt 0.173807 0.031246
vt 0.856637 0.103171
vt 0.815368 0.195020
vt 0.164098 0.031246
vt 0.865309 0.110605
vt 0.809708 0.205035
vt 0.164098 0.009050
vt 0.156954 0.031246
vt 0.870970 0.120621
vt 0.921213 0.123782
vt 0.737743 0.268045
vt 0.807742 0.990223
vt 0.009386 0.467192
vt 0.009386 0.990223
vt 0.790326 0.747534
vt 0.009386 0.728708
vt 0.991969 0.747534
vt 0.790326 0.249219
vt 0.952547 0.486019
vt 0.009386 0.050072
vt 0.461456 0.009050
vt 0.443003 0.009050
vt 0.566955 0.009050
vt 0.378306 0.009050
vt 0.528497 0.009050
vt 0.507701 0.009050
vt 0.482186 0.009050
vt 0.911210 0.142608
vt 0.890352 0.142608
vt 0.343636 0.009050
vt 0.321375 0.009050
vt 0.304522 0.009050
vt 0.674486 0.009050
vt 0.139537 0.009050
vt 0.111126 0.009050
vt 0.083170 0.009050
vt 0.626209 0.009050
vt 0.009386 0.009050
vt 0.881526 0.436875
vt 0.864110 0.436875
vt 0.835698 0.436875
vt 0.807742 0.436875
vt 0.657070 0.009050
vt 0.900492 0.101586
vt 0.279719 0.009050
vt 0.247591 0.009050
vt 0.230738 0.009050
vt 0.722764 0.009050
vt 0.213321 0.009050
vt 0.184910 0.009050
vt 0.156954 0.009050
vt 0.921213 0.101586
vt 0.009386 0.268045
vn -0.0000 0.0000 1.0000
vn 1.0000 -0.0000 0.0000
vn 0.0000 0.0000 -1.0000
vn -1.0000 0.0000 0.0000
vn -0.0000 -1.0000 -0.0000
vn 0.0000 1.0000 0.0000
vn 0.0000 -0.3080 -0.9514
vn -0.0000 -0.1834 0.9830
vn 0.0000 -0.5213 0.8533
vn 0.0000 -0.7835 0.6213
vn 0.0000 -0.9456 0.3253
vn -0.0000 -0.9456 -0.3253
vn 0.0000 -0.7835 -0.6213
vn 0.0000 -0.5213 -0.8534
vn 0.0000 -0.1834 -0.9830
vn 0.0000 0.1834 -0.9830
vn 0.0000 0.5213 -0.8534
vn 0.0000 0.7835 -0.6213
vn -0.0000 0.9456 -0.3253
vn 0.0000 0.9456 0.3253
vn 0.0000 0.7835 0.6213
vn 0.0000 0.5213 0.8533
vn -0.0000 0.1834 0.9830
vn 0.0000 -0.5213 0.8534
vn 0.0000 0.5213 0.8534
s off
f 2/1/1 4/2/1 1/3/1
f 4/4/2 5/5/2 6/6/2
f 8/7/3 10/8/3 7/9/3
f 12/10/4 13/11/4 11/12/4
f 14/13/5 3/14/5 2/15/5
f 13/16/6 16/17/6 11/18/6
f 7/19/6 11/18/6 16/17/6
f 17/20/4 12/10/4 9/21/4
f 17/22/5 5/23/5 14/13/5
f 7/24/2 6/6/2 8/25/2
f 15/26/1 1/3/1 4/2/1
f 14/27/4 1/28/4 12/10/4
f 18/29/7 9/30/7 8/7/7
f 11/12/4 9/21/4 12/10/4
f 6/6/2 18/31/2 8/25/2
f 19/32/2 20/33/2 21/34/2
f 22/35/8 21/36/8 20/37/8
f 22/38/4 24/39/4 23/40/4
f 19/32/2 21/34/2 25/41/2
f 21/36/9 26/42/9 25/43/9
f 23/40/4 24/39/4 26/44/4
f 19/32/2 25/41/2 27/45/2
f 26/42/10 27/46/10 25/43/10
f 26/44/4 24/39/4 28/47/4
f 19/32/2 27/45/2 29/48/2
f 28/49/11 29/50/11 27/51/11
f 28/47/4 24/39/4 30/52/4
f 19/32/2 29/48/2 31/53/2
f 30/54/5 31/55/5 29/50/5
f 30/52/4 24/39/4 32/56/4
f 19/32/2 31/53/2 33/57/2
f 32/58/12 33/59/12 31/55/12
f 32/56/4 24/39/4 34/60/4
f 19/32/2 33/57/2 35/61/2
f 34/62/13 35/63/13 33/59/13
f 34/60/4 24/39/4 36/64/4
f 19/32/2 35/61/2 37/65/2
f 36/66/14 37/67/14 35/68/14
f 36/64/4 24/39/4 38/69/4
f 19/32/2 37/65/2 39/70/2
f 38/71/15 39/72/15 37/67/15
f 38/69/4 24/39/4 40/73/4
f 19/32/2 39/70/2 41/74/2
f 40/75/16 41/76/16 39/72/16
f 40/73/4 24/39/4 42/77/4
f 19/32/2 41/74/2 43/78/2
f 42/79/17 43/80/17 41/76/17
f 42/77/4 24/39/4 44/81/4
f 19/32/2 43/78/2 45/82/2
f 44/83/18 45/84/18 43/80/18
f 44/81/4 24/39/4 46/85/4
f 19/32/2 45/82/2 47/86/2
f 46/87/19 47/88/19 45/89/19
f 46/85/4 24/39/4 48/90/4
f 19/32/2 47/86/2 49/91/2
f 48/92/6 49/93/6 47/88/6
f 48/90/4 24/39/4 50/94/4
f 19/32/2 49/91/2 51/95/2
f 49/93/20 52/96/20 51/97/20
f 50/94/4 24/39/4 52/98/4
f 19/32/2 51/95/2 53/99/2
f 52/96/21 53/100/21 51/97/21
f 52/98/4 24/39/4 54/101/4
f 19/32/2 53/99/2 55/102/2
f 54/103/22 55/104/22 53/105/22
f 54/101/4 24/39/4 56/106/4
f 19/32/2 55/102/2 20/33/2
f 55/104/23 22/35/23 20/37/23
f 56/106/4 24/39/4 22/38/4
f 57/107/2 58/108/2 59/109/2
f 58/110/8 61/111/8 59/112/8
f 60/113/4 62/114/4 61/115/4
f 57/107/2 59/109/2 63/116/2
f 61/111/9 63/117/9 59/112/9
f 61/115/4 62/114/4 64/118/4
f 57/107/2 63/116/2 65/119/2
f 64/120/10 65/121/10 63/122/10
f 64/118/4 62/114/4 66/123/4
f 57/107/2 65/119/2 67/124/2
f 66/125/11 67/126/11 65/121/11
f 66/123/4 62/114/4 68/127/4
f 57/107/2 67/124/2 69/128/2
f 67/126/5 70/129/5 69/130/5
f 68/127/4 62/114/4 70/131/4
f 57/107/2 69/128/2 71/132/2
f 70/129/12 71/133/12 69/130/12
f 70/131/4 62/114/4 72/134/4
f 57/107/2 71/132/2 73/135/2
f 71/133/13 74/136/13 73/137/13
f 72/134/4 62/114/4 74/138/4
f 57/107/2 73/135/2 75/139/2
f 74/136/14 75/140/14 73/137/14
f 74/138/4 62/114/4 76/141/4
f 57/107/2 75/139/2 77/142/2
f 76/143/15 77/144/15 75/145/15
f 76/141/4 62/114/4 78/146/4
f 57/107/2 77/142/2 79/147/2
f 78/148/16 79/149/16 77/144/16
f 78/146/4 62/114/4 80/150/4
f 57/107/2 79/147/2 81/151/2
f 80/152/17 81/153/17 79/149/17
f 80/150/4 62/114/4 82/154/4
f 57/107/2 81/151/2 83/155/2
f 81/156/18 84/157/18 83/158/18
f 82/154/4 62/114/4 84/159/4
f 57/107/2 83/155/2 85/160/2
f 84/157/19 85/161/19 83/158/19
f 84/159/4 62/114/4 86/162/4
f 57/107/2 85/160/2 87/163/2
f 86/164/6 87/165/6 85/161/6
f 86/162/4 62/114/4 88/166/4
f 57/107/2 87/163/2 89/167/2
f 87/165/20 90/168/20 89/169/20
f 88/166/4 62/114/4 90/170/4
f 57/107/2 89/167/2 91/171/2
f 90/168/21 91/172/21 89/169/21
f 90/170/4 62/114/4 92/173/4
f 57/107/2 91/171/2 93/174/2
f 92/175/22 93/176/22 91/172/22
f 92/173/4 62/114/4 94/177/4
f 57/107/2 93/174/2 58/108/2
f 94/178/23 58/110/23 93/179/23
f 94/177/4 62/114/4 60/113/4
f 95/180/2 96/181/2 97/182/2
f 98/183/8 97/184/8 96/185/8
f 98/186/4 100/187/4 99/188/4
f 95/180/2 97/182/2 101/189/2
f 99/190/24 101/191/24 97/184/24
f 99/188/4 100/187/4 102/192/4
f 95/180/2 101/189/2 103/193/2
f 102/194/10 103/195/10 101/196/10
f 102/192/4 100/187/4 104/197/4
f 95/180/2 103/193/2 105/198/2
f 104/199/11 105/200/11 103/195/11
f 104/197/4 100/187/4 106/201/4
f 95/180/2 105/198/2 107/202/2
f 106/203/5 107/204/5 105/200/5
f 106/201/4 100/187/4 108/205/4
f 95/180/2 107/202/2 109/206/2
f 108/207/12 109/208/12 107/204/12
f 108/205/4 100/187/4 110/209/4
f 95/180/2 109/206/2 111/210/2
f 110/211/13 111/212/13 109/208/13
f 110/209/4 100/187/4 112/213/4
f 95/180/2 111/210/2 113/214/2
f 112/215/14 113/216/14 111/212/14
f 112/213/4 100/187/4 114/217/4
f 95/180/2 113/214/2 115/218/2
f 114/219/15 115/220/15 113/221/15
f 114/217/4 100/187/4 116/222/4
f 95/180/2 115/218/2 117/223/2
f 116/224/16 117/225/16 115/220/16
f 116/222/4 100/187/4 118/226/4
f 95/180/2 117/223/2 119/227/2
f 118/228/17 119/229/17 117/225/17
f 118/226/4 100/187/4 120/230/4
f 95/180/2 119/227/2 121/231/2
f 119/232/18 122/233/18 121/234/18
f 120/230/4 100/187/4 122/235/4
f 95/180/2 121/231/2 123/236/2
f 122/233/19 123/237/19 121/234/19
f 122/235/4 100/187/4 124/238/4
f 95/180/2 123/236/2 125/239/2
f 124/240/6 125/241/6 123/237/6
f 124/238/4 100/187/4 126/242/4
f 95/180/2 125/239/2 127/243/2
f 125/241/20 128/244/20 127/245/20
f 126/242/4 100/187/4 128/246/4
f 95/180/2 127/243/2 129/247/2
f 127/245/21 130/248/21 129/249/21
f 128/246/4 100/187/4 130/250/4
f 95/180/2 129/247/2 131/251/2
f 130/248/25 131/252/25 129/249/25
f 130/250/4 100/187/4 132/253/4
f 95/180/2 131/251/2 96/181/2
f 131/254/23 98/183/23 96/185/23
f 132/253/4 100/187/4 98/186/4
f 133/255/2 134/256/2 135/257/2
f 136/258/8 135/259/8 134/260/8
f 136/261/4 138/262/4 137/263/4
f 133/255/2 135/257/2 139/264/2
f 135/259/24 140/265/24 139/266/24
f 137/263/4 138/262/4 140/267/4
f 133/255/2 139/264/2 141/268/2
f 140/269/10 141/270/10 139/271/10
f 140/267/4 138/262/4 142/272/4
f 133/255/2 141/268/2 143/273/2
f 141/270/11 144/274/11 143/275/11
f 142/272/4 138/262/4 144/276/4
f 133/255/2 143/273/2 145/277/2
f 144/274/5 145/278/5 143/275/5
f 144/276/4 138/262/4 146/279/4
f 133/255/2 145/277/2 147/280/2
f 146/281/12 147/282/12 145/278/12
f 146/279/4 138/262/4 148/283/4
f 133/255/2 147/280/2 149/284/2
f 147/282/13 150/285/13 149/286/13
f 148/283/4 138/262/4 150/287/4
f 133/255/2 149/284/2 151/288/2
f 150/285/14 151/289/14 149/286/14
f 150/287/4 138/262/4 152/290/4
f 133/255/2 151/288/2 153/291/2
f 152/292/15 153/293/15 151/294/15
f 152/290/4 138/262/4 154/295/4
f 133/255/2 153/291/2 155/296/2
f 154/297/16 155/298/16 153/293/16
f 154/295/4 138/262/4 156/299/4
f 133/255/2 155/296/2 157/300/2
f 156/301/17 157/302/17 155/298/17
f 156/299/4 138/262/4 158/303/4
f 133/255/2 157/300/2 159/304/2
f 157/305/18 160/306/18 159/307/18
f 158/303/4 138/262/4 160/308/4
f 133/255/2 159/304/2 161/309/2
f 160/306/19 161/310/19 159/307/19
f 160/308/4 138/262/4 162/311/4
f 133/255/2 161/309/2 163/312/2
f 162/313/6 163/314/6 161/310/6
f 162/311/4 138/262/4 164/315/4
f 133/255/2 163/312/2 165/316/2
f 163/314/20 166/317/20 165/318/20
f 164/315/4 138/262/4 166/319/4
f 133/255/2 165/316/2 167/320/2
f 166/317/21 167/321/21 165/318/21
f 166/319/4 138/262/4 168/322/4
f 133/255/2 167/320/2 169/323/2
f 168/324/25 169/325/25 167/321/25
f 168/322/4 138/262/4 170/326/4
f 133/255/2 169/323/2 134/256/2
f 169/327/23 136/258/23 134/260/23
f 170/326/4 138/262/4 136/261/4
f 16/328/2 4/4/2 6/6/2
f 2/1/1 3/329/1 4/2/1
f 4/4/2 3/330/2 5/5/2
f 8/7/3 9/30/3 10/8/3
f 12/10/4 1/28/4 13/11/4
f 14/13/5 5/23/5 3/14/5
f 13/16/6 15/331/6 16/17/6
f 7/19/6 10/332/6 11/18/6
f 17/20/4 14/27/4 12/10/4
f 17/22/5 18/333/5 5/23/5
f 7/24/2 16/328/2 6/6/2
f 15/26/1 13/334/1 1/3/1
f 14/27/4 2/335/4 1/28/4
f 18/29/7 17/336/7 9/30/7
f 11/12/4 10/337/4 9/21/4
f 6/6/2 5/5/2 18/31/2
f 22/35/8 23/338/8 21/36/8
f 21/36/9 23/338/9 26/42/9
f 26/42/10 28/339/10 27/46/10
f 28/49/11 30/54/11 29/50/11
f 30/54/5 32/58/5 31/55/5
f 32/58/12 34/62/12 33/59/12
f 34/62/13 36/340/13 35/63/13
f 36/66/14 38/71/14 37/67/14
f 38/71/15 40/75/15 39/72/15
f 40/75/16 42/79/16 41/76/16
f 42/79/17 44/83/17 43/80/17
f 44/83/18 46/341/18 45/84/18
f 46/87/19 48/92/19 47/88/19
f 48/92/6 50/342/6 49/93/6
f 49/93/20 50/342/20 52/96/20
f 52/96/21 54/343/21 53/100/21
f 54/103/22 56/344/22 55/104/22
f 55/104/23 56/344/23 22/35/23
f 58/110/8 60/345/8 61/111/8
f 61/111/9 64/346/9 63/117/9
f 64/120/10 66/125/10 65/121/10
f 66/125/11 68/347/11 67/126/11
f 67/126/5 68/347/5 70/129/5
f 70/129/12 72/348/12 71/133/12
f 71/133/13 72/348/13 74/136/13
f 74/136/14 76/349/14 75/140/14
f 76/143/15 78/148/15 77/144/15
f 78/148/16 80/152/16 79/149/16
f 80/152/17 82/350/17 81/153/17
f 81/156/18 82/351/18 84/157/18
f 84/157/19 86/164/19 85/161/19
f 86/164/6 88/352/6 87/165/6
f 87/165/20 88/352/20 90/168/20
f 90/168/21 92/175/21 91/172/21
f 92/175/22 94/353/22 93/176/22
f 94/178/23 60/345/23 58/110/23
f 98/183/8 99/190/8 97/184/8
f 99/190/24 102/354/24 101/191/24
f 102/194/10 104/199/10 103/195/10
f 104/199/11 106/203/11 105/200/11
f 106/203/5 108/207/5 107/204/5
f 108/207/12 110/211/12 109/208/12
f 110/211/13 112/215/13 111/212/13
f 112/215/14 114/355/14 113/216/14
f 114/219/15 116/224/15 115/220/15
f 116/224/16 118/228/16 117/225/16
f 118/228/17 120/356/17 119/229/17
f 119/232/18 120/357/18 122/233/18
f 122/233/19 124/240/19 123/237/19
f 124/240/6 126/358/6 125/241/6
f 125/241/20 126/358/20 128/244/20
f 127/245/21 128/244/21 130/248/21
f 130/248/25 132/359/25 131/252/25
f 131/254/23 132/360/23 98/183/23
f 136/258/8 137/361/8 135/259/8
f 135/259/24 137/361/24 140/265/24
f 140/269/10 142/362/10 141/270/10
f 141/270/11 142/362/11 144/274/11
f 144/274/5 146/281/5 145/278/5
f 146/281/12 148/363/12 147/282/12
f 147/282/13 148/363/13 150/285/13
f 150/285/14 152/364/14 151/289/14
f 152/292/15 154/297/15 153/293/15
f 154/297/16 156/301/16 155/298/16
f 156/301/17 158/365/17 157/302/17
f 157/305/18 158/366/18 160/306/18
f 160/306/19 162/313/19 161/310/19
f 162/313/6 164/367/6 163/314/6
f 163/314/20 164/367/20 166/317/20
f 166/317/21 168/324/21 167/321/21
f 168/324/25 170/368/25 169/325/25
f 169/327/23 170/369/23 136/258/23
f 16/328/2 15/370/2 4/4/2
