# Blender v2.79 (sub 0) OBJ File: ''
# www.blender.org
v -0.624712 -0.143305 1.353449
v -0.624712 -0.457179 1.353449
v 0.613904 -0.457179 1.353449
v 0.613904 -0.143305 1.353449
v 0.613904 -0.543247 -0.514591
v 0.613904 -0.411149 -1.319510
v 0.613904 -0.143305 -1.247027
v 0.613904 -0.143305 -0.514591
v -0.624712 -0.411149 -1.319510
v -0.624712 -0.143305 -1.247028
v -0.624712 -0.543246 0.796320
v -0.624712 -0.143305 0.796320
v 0.613904 -0.543247 0.796320
v -0.624712 -0.143305 -0.514591
v 0.613904 -0.143305 0.796320
v -0.624712 -0.543246 -0.514591
v -0.624712 -1.016553 0.725490
v -0.624712 -1.016553 -0.308946
v 0.613904 -1.016554 -0.308946
v 0.613904 -1.016554 0.725490
v 0.548045 -0.186456 -0.762277
v 0.548045 -0.186456 -0.946298
v 0.548045 -0.245936 -0.935200
v 0.663961 -0.186456 -0.946298
v 0.663961 -0.245936 -0.935200
v 0.663961 -0.186456 -0.762277
v 0.548045 -0.298241 -0.903245
v 0.663961 -0.298241 -0.903245
v 0.548045 -0.337064 -0.854287
v 0.663961 -0.337064 -0.854287
v 0.548045 -0.357721 -0.794232
v 0.663961 -0.357721 -0.794232
v 0.548045 -0.357721 -0.730322
v 0.663961 -0.357721 -0.730322
v 0.548045 -0.337064 -0.670267
v 0.663961 -0.337064 -0.670267
v 0.548045 -0.298241 -0.621309
v 0.663961 -0.298241 -0.621309
v 0.548045 -0.245936 -0.589354
v 0.663961 -0.245936 -0.589354
v 0.548045 -0.186456 -0.578256
v 0.663961 -0.186456 -0.578256
v 0.548045 -0.126976 -0.589354
v 0.663961 -0.126976 -0.589354
v 0.548045 -0.074671 -0.621309
v 0.663961 -0.074671 -0.621309
v 0.548045 -0.035848 -0.670267
v 0.663961 -0.035848 -0.670267
v 0.548045 -0.015191 -0.730322
v 0.663961 -0.015191 -0.730322
v 0.548045 -0.015191 -0.794232
v 0.663961 -0.015191 -0.794232
v 0.548045 -0.035848 -0.854287
v 0.663961 -0.035848 -0.854287
v 0.548045 -0.074671 -0.903245
v 0.663961 -0.074671 -0.903245
v 0.548045 -0.126976 -0.935200
v 0.663961 -0.126976 -0.935200
v -0.692592 -0.186456 -0.762277
v -0.692592 -0.186456 -0.946298
v -0.692592 -0.245936 -0.935200
v -0.576676 -0.186456 -0.946298
v -0.576676 -0.245936 -0.935200
v -0.576676 -0.186456 -0.762277
v -0.692592 -0.298241 -0.903245
v -0.576676 -0.298241 -0.903245
v -0.692592 -0.337064 -0.854287
v -0.576676 -0.337064 -0.854287
v -0.692592 -0.357721 -0.794232
v -0.576676 -0.357721 -0.794232
v -0.692592 -0.357721 -0.730322
v -0.576676 -0.357721 -0.730322
v -0.692592 -0.337064 -0.670267
v -0.576676 -0.337064 -0.670267
v -0.692592 -0.298241 -0.621309
v -0.576676 -0.298241 -0.621309
v -0.692592 -0.245936 -0.589354
v -0.576676 -0.245936 -0.589354
v -0.692592 -0.186456 -0.578256
v -0.576676 -0.186456 -0.578256
v -0.692592 -0.126976 -0.589354
v -0.576676 -0.126976 -0.589354
v -0.692592 -0.074671 -0.621309
v -0.576676 -0.074671 -0.621309
v -0.692592 -0.035848 -0.670267
v -0.576676 -0.035848 -0.670267
v -0.692592 -0.015191 -0.730322
v -0.576676 -0.015191 -0.730322
v -0.692592 -0.015191 -0.794232
v -0.576676 -0.015191 -0.794232
v -0.692592 -0.035848 -0.854287
v -0.576676 -0.035848 -0.854287
v -0.692592 -0.074671 -0.903245
v -0.576676 -0.074671 -0.903245
v -0.692592 -0.126976 -0.935200
v -0.576676 -0.126976 -0.935200
v 0.566995 -0.177535 0.757726
v 0.566995 -0.177535 0.573705
v 0.566995 -0.237014 0.584803
v 0.682911 -0.177535 0.573705
v 0.682911 -0.237014 0.584803
v 0.682911 -0.177535 0.757726
v 0.566995 -0.289320 0.616758
v 0.682911 -0.289320 0.616758
v 0.566995 -0.328142 0.665715
v 0.682911 -0.328142 0.665715
v 0.566995 -0.348799 0.725771
v 0.682911 -0.348799 0.725771
v 0.566995 -0.348799 0.789680
v 0.682911 -0.348799 0.789680
v 0.566995 -0.328142 0.849736
v 0.682911 -0.328142 0.849736
v 0.566995 -0.289320 0.898694
v 0.682911 -0.289320 0.898694
v 0.566995 -0.237014 0.930648
v 0.682911 -0.237014 0.930648
v 0.566995 -0.177535 0.941746
v 0.682911 -0.177535 0.941746
v 0.566995 -0.118055 0.930648
v 0.682911 -0.118055 0.930648
v 0.566995 -0.065749 0.898694
v 0.682911 -0.065749 0.898694
v 0.566995 -0.026927 0.849736
v 0.682911 -0.026927 0.849736
v 0.566995 -0.006270 0.789680
v 0.682911 -0.006270 0.789680
v 0.566995 -0.006270 0.725771
v 0.682911 -0.006270 0.725771
v 0.566995 -0.026927 0.665715
v 0.682911 -0.026927 0.665715
v 0.566995 -0.065749 0.616758
v 0.682911 -0.065749 0.616758
v 0.566995 -0.118055 0.584803
v 0.682911 -0.118055 0.584803
v -0.673642 -0.177534 0.757726
v -0.673642 -0.177534 0.573705
v -0.673642 -0.237014 0.584803
v -0.557726 -0.177534 0.573705
v -0.557726 -0.237014 0.584803
v -0.557726 -0.177534 0.757726
v -0.673642 -0.289320 0.616758
v -0.557726 -0.289320 0.616758
v -0.673642 -0.328142 0.665715
v -0.557726 -0.328142 0.665715
v -0.673642 -0.348799 0.725771
v -0.557726 -0.348799 0.725771
v -0.673642 -0.348799 0.789680
v -0.557726 -0.348799 0.789680
v -0.673642 -0.328142 0.849736
v -0.557726 -0.328142 0.849736
v -0.673642 -0.289320 0.898694
v -0.557726 -0.289320 0.898694
v -0.673642 -0.237014 0.930648
v -0.557726 -0.237014 0.930648
v -0.673642 -0.177534 0.941746
v -0.557726 -0.177534 0.941746
v -0.673642 -0.118055 0.930648
v -0.557726 -0.118055 0.930648
v -0.673642 -0.065749 0.898694
v -0.557726 -0.065749 0.898694
v -0.673642 -0.026927 0.849736
v -0.557726 -0.026927 0.849736
v -0.673642 -0.006270 0.789680
v -0.557726 -0.006270 0.789680
v -0.673642 -0.006270 0.725771
v -0.557726 -0.006270 0.725771
v -0.673642 -0.026927 0.665715
v -0.557726 -0.026927 0.665715
v -0.673642 -0.065749 0.616758
v -0.557726 -0.065749 0.616758
v -0.673642 -0.118055 0.584803
v -0.557726 -0.118055 0.584803
vt 0.676355 0.992870
vt 0.991246 0.925182
vt 0.676355 0.925182
vt 0.484596 0.298725
vt 0.670802 0.212476
vt 0.484596 0.212476
vt 0.324579 0.416438
vt 0.009688 0.432069
vt 0.324579 0.432069
vt 0.689229 0.076201
vt 0.547592 0.008514
vt 0.547592 0.094762
vt 0.343021 0.536585
vt 0.657912 0.416438
vt 0.343021 0.416438
vt 0.009688 0.590021
vt 0.151326 0.212476
vt 0.028115 0.008514
vt 0.214321 0.094762
vt 0.214321 0.008514
vt 0.343021 0.992870
vt 0.657912 0.819287
vt 0.343021 0.819287
vt 0.324579 0.872723
vt 0.324579 0.590021
vt 0.343021 0.774939
vt 0.657912 0.551860
vt 0.343021 0.551860
vt 0.009688 0.280164
vt 0.151326 0.298725
vt 0.009688 0.992870
vt 0.009688 0.872723
vt 0.657912 0.536585
vt 0.432316 0.400795
vt 0.657912 0.774939
vt 0.266602 0.196832
vt 0.723138 0.604070
vt 0.676355 0.604070
vt 0.679176 0.616897
vt 0.836275 0.476595
vt 0.865744 0.489422
vt 0.865744 0.476595
vt 0.881930 0.693581
vt 0.835147 0.693581
vt 0.879108 0.706408
vt 0.687300 0.628177
vt 0.836275 0.500702
vt 0.865744 0.500702
vt 0.870985 0.717688
vt 0.699746 0.636549
vt 0.769921 0.461981
vt 0.740452 0.451423
vt 0.740452 0.461981
vt 0.858538 0.726060
vt 0.715014 0.641003
vt 0.769921 0.451423
vt 0.740452 0.438472
vt 0.843270 0.730515
vt 0.731262 0.641003
vt 0.769921 0.438472
vt 0.740452 0.424689
vt 0.827023 0.730515
vt 0.746529 0.636549
vt 0.769921 0.424689
vt 0.740452 0.411738
vt 0.811755 0.726060
vt 0.758976 0.628177
vt 0.769921 0.411738
vt 0.740452 0.401180
vt 0.799309 0.717688
vt 0.767100 0.616897
vt 0.865744 0.436844
vt 0.836275 0.425564
vt 0.836275 0.436844
vt 0.791185 0.706408
vt 0.769921 0.604070
vt 0.865744 0.412738
vt 0.836275 0.412738
vt 0.788363 0.693581
vt 0.767100 0.591243
vt 0.836275 0.399910
vt 0.791185 0.680754
vt 0.758976 0.579963
vt 0.865744 0.399910
vt 0.836275 0.388631
vt 0.799309 0.669474
vt 0.746529 0.571591
vt 0.769921 0.385536
vt 0.740452 0.374979
vt 0.740452 0.385536
vt 0.811755 0.661102
vt 0.731262 0.567136
vt 0.769921 0.374979
vt 0.740452 0.362027
vt 0.827023 0.656647
vt 0.715014 0.567136
vt 0.769921 0.362027
vt 0.740452 0.348245
vt 0.843270 0.656647
vt 0.699746 0.571591
vt 0.769921 0.348245
vt 0.740452 0.335294
vt 0.858538 0.661102
vt 0.687300 0.579963
vt 0.769921 0.335294
vt 0.740452 0.324736
vt 0.870985 0.669474
vt 0.679176 0.591243
vt 0.836275 0.452488
vt 0.865744 0.463768
vt 0.865744 0.452488
vt 0.879108 0.680754
vt 0.836275 0.463768
vt 0.835147 0.783093
vt 0.788363 0.783093
vt 0.791185 0.795920
vt 0.913655 0.616897
vt 0.884186 0.629724
vt 0.913655 0.629724
vt 0.881930 0.872604
vt 0.835147 0.872604
vt 0.879108 0.885431
vt 0.799309 0.807199
vt 0.884186 0.641003
vt 0.913655 0.641003
vt 0.870985 0.896711
vt 0.811755 0.815572
vt 0.865744 0.641003
vt 0.836275 0.630446
vt 0.836275 0.641003
vt 0.858538 0.905083
vt 0.827023 0.820026
vt 0.865744 0.617495
vt 0.836275 0.617495
vt 0.843270 0.909538
vt 0.843270 0.820026
vt 0.836275 0.603712
vt 0.827023 0.909538
vt 0.858538 0.815572
vt 0.865744 0.603712
vt 0.836275 0.590761
vt 0.811755 0.905083
vt 0.870985 0.807199
vt 0.865744 0.580203
vt 0.836275 0.580203
vt 0.799309 0.896711
vt 0.879108 0.795920
vt 0.884186 0.577146
vt 0.913655 0.565866
vt 0.884186 0.565866
vt 0.791185 0.885431
vt 0.881930 0.783093
vt 0.884186 0.553039
vt 0.788363 0.872604
vt 0.879108 0.770266
vt 0.913655 0.553039
vt 0.884186 0.540212
vt 0.791185 0.859777
vt 0.870985 0.758986
vt 0.913655 0.528932
vt 0.884186 0.528932
vt 0.799309 0.848497
vt 0.858538 0.750614
vt 0.788363 0.411671
vt 0.817832 0.401113
vt 0.788363 0.401113
vt 0.811755 0.840125
vt 0.843270 0.746159
vt 0.788363 0.388162
vt 0.827023 0.835670
vt 0.827023 0.746159
vt 0.817832 0.388162
vt 0.788363 0.374380
vt 0.843270 0.835670
vt 0.811755 0.750614
vt 0.817832 0.361428
vt 0.788363 0.361428
vt 0.858538 0.840125
vt 0.799309 0.758986
vt 0.817832 0.350871
vt 0.788363 0.350871
vt 0.870985 0.848497
vt 0.791185 0.770266
vt 0.884186 0.592790
vt 0.913655 0.604070
vt 0.913655 0.592790
vt 0.879108 0.859777
vt 0.884186 0.604070
vt 0.723138 0.514558
vt 0.676355 0.514558
vt 0.679176 0.527385
vt 0.865744 0.348880
vt 0.836275 0.361707
vt 0.865744 0.361707
vt 0.769921 0.872604
vt 0.723138 0.872604
vt 0.767100 0.885431
vt 0.687300 0.538665
vt 0.865744 0.372987
vt 0.758976 0.896711
vt 0.699746 0.547037
vt 0.788363 0.641003
vt 0.817832 0.630446
vt 0.788363 0.630446
vt 0.746529 0.905083
vt 0.715014 0.551492
vt 0.788363 0.617495
vt 0.731262 0.909538
vt 0.731262 0.551492
vt 0.817832 0.617495
vt 0.788363 0.603712
vt 0.715014 0.909538
vt 0.746529 0.547037
vt 0.817832 0.603712
vt 0.788363 0.590761
vt 0.699746 0.905083
vt 0.758976 0.538665
vt 0.817832 0.590761
vt 0.788363 0.580203
vt 0.687300 0.896711
vt 0.767100 0.527385
vt 0.865744 0.564559
vt 0.836275 0.553279
vt 0.836275 0.564559
vt 0.679176 0.885431
vt 0.769921 0.514558
vt 0.865744 0.553279
vt 0.836275 0.540452
vt 0.676355 0.872604
vt 0.767100 0.501731
vt 0.865744 0.540452
vt 0.836275 0.527626
vt 0.679176 0.859777
vt 0.758976 0.490452
vt 0.865744 0.527626
vt 0.836275 0.516346
vt 0.687300 0.848497
vt 0.746529 0.482079
vt 0.817832 0.564559
vt 0.788363 0.554001
vt 0.788363 0.564559
vt 0.699746 0.840125
vt 0.731262 0.477625
vt 0.817832 0.554001
vt 0.788363 0.541050
vt 0.715014 0.835670
vt 0.715014 0.477625
vt 0.817832 0.541050
vt 0.788363 0.527268
vt 0.731262 0.835670
vt 0.699746 0.482079
vt 0.817832 0.527268
vt 0.788363 0.514317
vt 0.746529 0.840125
vt 0.687300 0.490452
vt 0.817832 0.514317
vt 0.788363 0.503759
vt 0.758976 0.848497
vt 0.679176 0.501731
vt 0.836275 0.324773
vt 0.865744 0.336053
vt 0.865744 0.324773
vt 0.767100 0.859777
vt 0.836275 0.348880
vt 0.723138 0.783093
vt 0.676355 0.783093
vt 0.679176 0.795920
vt 0.769921 0.284985
vt 0.740452 0.297812
vt 0.769921 0.297812
vt 0.769921 0.693581
vt 0.723138 0.693581
vt 0.767100 0.706408
vt 0.687300 0.807199
vt 0.769921 0.309092
vt 0.758976 0.717688
vt 0.699746 0.815572
vt 0.817832 0.335227
vt 0.788363 0.324669
vt 0.788363 0.335227
vt 0.746529 0.726060
vt 0.715014 0.820026
vt 0.817832 0.311718
vt 0.788363 0.311718
vt 0.731262 0.730515
vt 0.731262 0.820026
vt 0.788363 0.297935
vt 0.715014 0.730515
vt 0.746529 0.815572
vt 0.817832 0.297935
vt 0.788363 0.284984
vt 0.699746 0.726060
vt 0.758976 0.807199
vt 0.817832 0.284984
vt 0.788363 0.274426
vt 0.687300 0.717688
vt 0.767100 0.795920
vt 0.836275 0.309129
vt 0.865744 0.297849
vt 0.836275 0.297849
vt 0.679176 0.706408
vt 0.769921 0.783093
vt 0.836275 0.285023
vt 0.676355 0.693581
vt 0.767100 0.770266
vt 0.865744 0.285023
vt 0.836275 0.272195
vt 0.679176 0.680754
vt 0.758976 0.758986
vt 0.865744 0.272195
vt 0.836275 0.260916
vt 0.687300 0.669474
vt 0.746529 0.750614
vt 0.817832 0.488115
vt 0.788363 0.477557
vt 0.788363 0.488115
vt 0.699746 0.661102
vt 0.731262 0.746159
vt 0.817832 0.477557
vt 0.788363 0.464606
vt 0.715014 0.656647
vt 0.715014 0.746159
vt 0.817832 0.464606
vt 0.788363 0.450824
vt 0.731262 0.656647
vt 0.699746 0.750614
vt 0.817832 0.450824
vt 0.788363 0.437873
vt 0.746529 0.661102
vt 0.687300 0.758986
vt 0.817832 0.437873
vt 0.788363 0.427315
vt 0.758976 0.669474
vt 0.679176 0.770266
vt 0.740452 0.260879
vt 0.769921 0.272159
vt 0.769921 0.260879
vt 0.767100 0.680754
vt 0.740452 0.284985
vt 0.991246 0.992870
vt 0.689229 0.270237
vt 0.009688 0.416438
vt 0.689229 0.008514
vt 0.009688 0.066275
vt 0.657912 0.992870
vt 0.009688 0.212476
vt 0.324579 0.992870
vt 0.169333 0.400795
vt 0.529584 0.196832
vt 0.836275 0.489422
vt 0.769921 0.401180
vt 0.865744 0.425564
vt 0.865744 0.388631
vt 0.769921 0.324736
vt 0.884186 0.616897
vt 0.865744 0.630446
vt 0.865744 0.590761
vt 0.913655 0.577146
vt 0.913655 0.540212
vt 0.817832 0.411671
vt 0.817832 0.374380
vt 0.836275 0.372987
vt 0.817832 0.641003
vt 0.817832 0.580203
vt 0.865744 0.516346
vt 0.817832 0.503759
vt 0.836275 0.336053
vt 0.740452 0.309092
vt 0.817832 0.324669
vt 0.817832 0.274426
vt 0.865744 0.309129
vt 0.865744 0.260916
vt 0.817832 0.427315
vt 0.740452 0.272159
vn 0.0000 0.0000 1.0000
vn 1.0000 0.0000 -0.0000
vn 0.0000 0.2612 -0.9653
vn -1.0000 0.0000 -0.0000
vn -0.0000 -0.9883 0.1527
vn 0.0000 1.0000 0.0000
vn -0.0000 -0.9868 -0.1619
vn -0.0000 -1.0000 0.0000
vn 0.0000 -0.1480 0.9890
vn -0.0000 -0.3985 -0.9172
vn 0.0000 -0.1834 -0.9830
vn 0.0000 -0.5213 -0.8534
vn 0.0000 -0.7835 -0.6213
vn 0.0000 -0.9456 -0.3253
vn 0.0000 -0.9456 0.3253
vn 0.0000 -0.7835 0.6213
vn 0.0000 -0.5213 0.8534
vn -0.0000 -0.1834 0.9830
vn 0.0000 0.1834 0.9830
vn 0.0000 0.5213 0.8534
vn 0.0000 0.7835 0.6213
vn 0.0000 0.9456 0.3253
vn 0.0000 0.9456 -0.3253
vn 0.0000 0.7835 -0.6213
vn 0.0000 0.5213 -0.8534
vn 0.0000 0.1834 -0.9830
s off
f 2/1/1 4/2/1 1/3/1
f 5/4/2 7/5/2 8/6/2
f 6/7/3 10/8/3 7/9/3
f 2/10/4 12/11/4 11/12/4
f 11/13/5 3/14/5 2/15/5
f 14/16/6 7/9/6 10/8/6
f 15/17/2 5/4/2 8/6/2
f 10/18/4 16/19/4 14/20/4
f 9/21/7 5/22/7 16/23/7
f 14/16/6 15/24/6 8/25/6
f 14/20/4 11/12/4 12/11/4
f 18/26/8 20/27/8 17/28/8
f 15/17/2 3/29/2 13/30/2
f 1/31/6 15/24/6 12/32/6
f 17/28/9 13/33/9 11/13/9
f 13/30/2 19/34/2 5/4/2
f 19/35/10 16/23/10 5/22/10
f 18/36/4 11/12/4 16/19/4
f 21/37/4 22/38/4 23/39/4
f 24/40/11 23/41/11 22/42/11
f 24/43/2 26/44/2 25/45/2
f 21/37/4 23/39/4 27/46/4
f 23/41/12 28/47/12 27/48/12
f 25/45/2 26/44/2 28/49/2
f 21/37/4 27/46/4 29/50/4
f 28/51/13 29/52/13 27/53/13
f 28/49/2 26/44/2 30/54/2
f 21/37/4 29/50/4 31/55/4
f 30/56/14 31/57/14 29/52/14
f 30/54/2 26/44/2 32/58/2
f 21/37/4 31/55/4 33/59/4
f 32/60/8 33/61/8 31/57/8
f 32/58/2 26/44/2 34/62/2
f 21/37/4 33/59/4 35/63/4
f 34/64/15 35/65/15 33/61/15
f 34/62/2 26/44/2 36/66/2
f 21/37/4 35/63/4 37/67/4
f 36/68/16 37/69/16 35/65/16
f 36/66/2 26/44/2 38/70/2
f 21/37/4 37/67/4 39/71/4
f 38/72/17 39/73/17 37/74/17
f 38/70/2 26/44/2 40/75/2
f 21/37/4 39/71/4 41/76/4
f 39/73/18 42/77/18 41/78/18
f 40/75/2 26/44/2 42/79/2
f 21/37/4 41/76/4 43/80/4
f 42/77/19 43/81/19 41/78/19
f 42/79/2 26/44/2 44/82/2
f 21/37/4 43/80/4 45/83/4
f 44/84/20 45/85/20 43/81/20
f 44/82/2 26/44/2 46/86/2
f 21/37/4 45/83/4 47/87/4
f 46/88/21 47/89/21 45/90/21
f 46/86/2 26/44/2 48/91/2
f 21/37/4 47/87/4 49/92/4
f 48/93/22 49/94/22 47/89/22
f 48/91/2 26/44/2 50/95/2
f 21/37/4 49/92/4 51/96/4
f 50/97/6 51/98/6 49/94/6
f 50/95/2 26/44/2 52/99/2
f 21/37/4 51/96/4 53/100/4
f 52/101/23 53/102/23 51/98/23
f 52/99/2 26/44/2 54/103/2
f 21/37/4 53/100/4 55/104/4
f 54/105/24 55/106/24 53/102/24
f 54/103/2 26/44/2 56/107/2
f 21/37/4 55/104/4 57/108/4
f 56/109/25 57/110/25 55/111/25
f 56/107/2 26/44/2 58/112/2
f 21/37/4 57/108/4 22/38/4
f 58/113/26 22/42/26 57/110/26
f 58/112/2 26/44/2 24/43/2
f 59/114/4 60/115/4 61/116/4
f 60/117/11 63/118/11 61/119/11
f 62/120/2 64/121/2 63/122/2
f 59/114/4 61/116/4 65/123/4
f 61/119/12 66/124/12 65/125/12
f 63/122/2 64/121/2 66/126/2
f 59/114/4 65/123/4 67/127/4
f 66/128/13 67/129/13 65/130/13
f 66/126/2 64/121/2 68/131/2
f 59/114/4 67/127/4 69/132/4
f 67/129/14 70/133/14 69/134/14
f 68/131/2 64/121/2 70/135/2
f 59/114/4 69/132/4 71/136/4
f 70/133/8 71/137/8 69/134/8
f 70/135/2 64/121/2 72/138/2
f 59/114/4 71/136/4 73/139/4
f 72/140/15 73/141/15 71/137/15
f 72/138/2 64/121/2 74/142/2
f 59/114/4 73/139/4 75/143/4
f 73/141/16 76/144/16 75/145/16
f 74/142/2 64/121/2 76/146/2
f 59/114/4 75/143/4 77/147/4
f 75/148/17 78/149/17 77/150/17
f 76/146/2 64/121/2 78/151/2
f 59/114/4 77/147/4 79/152/4
f 78/149/18 79/153/18 77/150/18
f 78/151/2 64/121/2 80/154/2
f 59/114/4 79/152/4 81/155/4
f 80/156/19 81/157/19 79/153/19
f 80/154/2 64/121/2 82/158/2
f 59/114/4 81/155/4 83/159/4
f 81/157/20 84/160/20 83/161/20
f 82/158/2 64/121/2 84/162/2
f 59/114/4 83/159/4 85/163/4
f 83/164/21 86/165/21 85/166/21
f 84/162/2 64/121/2 86/167/2
f 59/114/4 85/163/4 87/168/4
f 86/165/22 87/169/22 85/166/22
f 86/167/2 64/121/2 88/170/2
f 59/114/4 87/168/4 89/171/4
f 88/172/6 89/173/6 87/169/6
f 88/170/2 64/121/2 90/174/2
f 59/114/4 89/171/4 91/175/4
f 89/173/23 92/176/23 91/177/23
f 90/174/2 64/121/2 92/178/2
f 59/114/4 91/175/4 93/179/4
f 91/177/24 94/180/24 93/181/24
f 92/178/2 64/121/2 94/182/2
f 59/114/4 93/179/4 95/183/4
f 94/184/25 95/185/25 93/186/25
f 94/182/2 64/121/2 96/187/2
f 59/114/4 95/183/4 60/115/4
f 96/188/26 60/117/26 95/185/26
f 96/187/2 64/121/2 62/120/2
f 97/189/4 98/190/4 99/191/4
f 98/192/11 101/193/11 99/194/11
f 100/195/2 102/196/2 101/197/2
f 97/189/4 99/191/4 103/198/4
f 101/193/12 103/199/12 99/194/12
f 101/197/2 102/196/2 104/200/2
f 97/189/4 103/198/4 105/201/4
f 103/202/13 106/203/13 105/204/13
f 104/200/2 102/196/2 106/205/2
f 97/189/4 105/201/4 107/206/4
f 106/203/14 107/207/14 105/204/14
f 106/205/2 102/196/2 108/208/2
f 97/189/4 107/206/4 109/209/4
f 108/210/8 109/211/8 107/207/8
f 108/208/2 102/196/2 110/212/2
f 97/189/4 109/209/4 111/213/4
f 110/214/15 111/215/15 109/211/15
f 110/212/2 102/196/2 112/216/2
f 97/189/4 111/213/4 113/217/4
f 112/218/16 113/219/16 111/215/16
f 112/216/2 102/196/2 114/220/2
f 97/189/4 113/217/4 115/221/4
f 114/222/17 115/223/17 113/224/17
f 114/220/2 102/196/2 116/225/2
f 97/189/4 115/221/4 117/226/4
f 116/227/18 117/228/18 115/223/18
f 116/225/2 102/196/2 118/229/2
f 97/189/4 117/226/4 119/230/4
f 118/231/19 119/232/19 117/228/19
f 118/229/2 102/196/2 120/233/2
f 97/189/4 119/230/4 121/234/4
f 120/235/20 121/236/20 119/232/20
f 120/233/2 102/196/2 122/237/2
f 97/189/4 121/234/4 123/238/4
f 122/239/21 123/240/21 121/241/21
f 122/237/2 102/196/2 124/242/2
f 97/189/4 123/238/4 125/243/4
f 124/244/22 125/245/22 123/240/22
f 124/242/2 102/196/2 126/246/2
f 97/189/4 125/243/4 127/247/4
f 126/248/6 127/249/6 125/245/6
f 126/246/2 102/196/2 128/250/2
f 97/189/4 127/247/4 129/251/4
f 128/252/23 129/253/23 127/249/23
f 128/250/2 102/196/2 130/254/2
f 97/189/4 129/251/4 131/255/4
f 130/256/24 131/257/24 129/253/24
f 130/254/2 102/196/2 132/258/2
f 97/189/4 131/255/4 133/259/4
f 132/260/25 133/261/25 131/262/25
f 132/258/2 102/196/2 134/263/2
f 97/189/4 133/259/4 98/190/4
f 133/261/26 100/264/26 98/192/26
f 134/263/2 102/196/2 100/195/2
f 135/265/4 136/266/4 137/267/4
f 136/268/11 139/269/11 137/270/11
f 138/271/2 140/272/2 139/273/2
f 135/265/4 137/267/4 141/274/4
f 139/269/12 141/275/12 137/270/12
f 139/273/2 140/272/2 142/276/2
f 135/265/4 141/274/4 143/277/4
f 142/278/13 143/279/13 141/280/13
f 142/276/2 140/272/2 144/281/2
f 135/265/4 143/277/4 145/282/4
f 143/279/14 146/283/14 145/284/14
f 144/281/2 140/272/2 146/285/2
f 135/265/4 145/282/4 147/286/4
f 146/283/8 147/287/8 145/284/8
f 146/285/2 140/272/2 148/288/2
f 135/265/4 147/286/4 149/289/4
f 148/290/15 149/291/15 147/287/15
f 148/288/2 140/272/2 150/292/2
f 135/265/4 149/289/4 151/293/4
f 150/294/16 151/295/16 149/291/16
f 150/292/2 140/272/2 152/296/2
f 135/265/4 151/293/4 153/297/4
f 151/298/17 154/299/17 153/300/17
f 152/296/2 140/272/2 154/301/2
f 135/265/4 153/297/4 155/302/4
f 154/299/18 155/303/18 153/300/18
f 154/301/2 140/272/2 156/304/2
f 135/265/4 155/302/4 157/305/4
f 156/306/19 157/307/19 155/303/19
f 156/304/2 140/272/2 158/308/2
f 135/265/4 157/305/4 159/309/4
f 158/310/20 159/311/20 157/307/20
f 158/308/2 140/272/2 160/312/2
f 135/265/4 159/309/4 161/313/4
f 160/314/21 161/315/21 159/316/21
f 160/312/2 140/272/2 162/317/2
f 135/265/4 161/313/4 163/318/4
f 162/319/22 163/320/22 161/315/22
f 162/317/2 140/272/2 164/321/2
f 135/265/4 163/318/4 165/322/4
f 164/323/6 165/324/6 163/320/6
f 164/321/2 140/272/2 166/325/2
f 135/265/4 165/322/4 167/326/4
f 166/327/23 167/328/23 165/324/23
f 166/325/2 140/272/2 168/329/2
f 135/265/4 167/326/4 169/330/4
f 168/331/24 169/332/24 167/328/24
f 168/329/2 140/272/2 170/333/2
f 135/265/4 169/330/4 171/334/4
f 170/335/25 171/336/25 169/337/25
f 170/333/2 140/272/2 172/338/2
f 135/265/4 171/334/4 136/266/4
f 171/336/26 138/339/26 136/268/26
f 172/338/2 140/272/2 138/271/2
f 2/1/1 3/340/1 4/2/1
f 5/4/2 6/341/2 7/5/2
f 6/7/3 9/342/3 10/8/3
f 2/10/4 1/343/4 12/11/4
f 11/13/5 13/33/5 3/14/5
f 14/16/6 8/25/6 7/9/6
f 15/17/2 13/30/2 5/4/2
f 10/18/4 9/344/4 16/19/4
f 9/21/7 6/345/7 5/22/7
f 14/16/6 12/32/6 15/24/6
f 14/20/4 16/19/4 11/12/4
f 18/26/8 19/35/8 20/27/8
f 15/17/2 4/346/2 3/29/2
f 1/31/6 4/347/6 15/24/6
f 17/28/9 20/27/9 13/33/9
f 13/30/2 20/348/2 19/34/2
f 19/35/10 18/26/10 16/23/10
f 18/36/4 17/349/4 11/12/4
f 24/40/11 25/350/11 23/41/11
f 23/41/12 25/350/12 28/47/12
f 28/51/13 30/56/13 29/52/13
f 30/56/14 32/60/14 31/57/14
f 32/60/8 34/64/8 33/61/8
f 34/64/15 36/68/15 35/65/15
f 36/68/16 38/351/16 37/69/16
f 38/72/17 40/352/17 39/73/17
f 39/73/18 40/352/18 42/77/18
f 42/77/19 44/84/19 43/81/19
f 44/84/20 46/353/20 45/85/20
f 46/88/21 48/93/21 47/89/21
f 48/93/22 50/97/22 49/94/22
f 50/97/6 52/101/6 51/98/6
f 52/101/23 54/105/23 53/102/23
f 54/105/24 56/354/24 55/106/24
f 56/109/25 58/113/25 57/110/25
f 58/113/26 24/40/26 22/42/26
f 60/117/11 62/355/11 63/118/11
f 61/119/12 63/118/12 66/124/12
f 66/128/13 68/356/13 67/129/13
f 67/129/14 68/356/14 70/133/14
f 70/133/8 72/140/8 71/137/8
f 72/140/15 74/357/15 73/141/15
f 73/141/16 74/357/16 76/144/16
f 75/148/17 76/358/17 78/149/17
f 78/149/18 80/156/18 79/153/18
f 80/156/19 82/359/19 81/157/19
f 81/157/20 82/359/20 84/160/20
f 83/164/21 84/360/21 86/165/21
f 86/165/22 88/172/22 87/169/22
f 88/172/6 90/361/6 89/173/6
f 89/173/23 90/361/23 92/176/23
f 91/177/24 92/176/24 94/180/24
f 94/184/25 96/188/25 95/185/25
f 96/188/26 62/355/26 60/117/26
f 98/192/11 100/264/11 101/193/11
f 101/193/12 104/362/12 103/199/12
f 103/202/13 104/363/13 106/203/13
f 106/203/14 108/210/14 107/207/14
f 108/210/8 110/214/8 109/211/8
f 110/214/15 112/218/15 111/215/15
f 112/218/16 114/364/16 113/219/16
f 114/222/17 116/227/17 115/223/17
f 116/227/18 118/231/18 117/228/18
f 118/231/19 120/235/19 119/232/19
f 120/235/20 122/365/20 121/236/20
f 122/239/21 124/244/21 123/240/21
f 124/244/22 126/248/22 125/245/22
f 126/248/6 128/252/6 127/249/6
f 128/252/23 130/256/23 129/253/23
f 130/256/24 132/366/24 131/257/24
f 132/260/25 134/367/25 133/261/25
f 133/261/26 134/367/26 100/264/26
f 136/268/11 138/339/11 139/269/11
f 139/269/12 142/368/12 141/275/12
f 142/278/13 144/369/13 143/279/13
f 143/279/14 144/369/14 146/283/14
f 146/283/8 148/290/8 147/287/8
f 148/290/15 150/294/15 149/291/15
f 150/294/16 152/370/16 151/295/16
f 151/298/17 152/371/17 154/299/17
f 154/299/18 156/306/18 155/303/18
f 156/306/19 158/310/19 157/307/19
f 158/310/20 160/372/20 159/311/20
f 160/314/21 162/319/21 161/315/21
f 162/319/22 164/323/22 163/320/22
f 164/323/6 166/327/6 165/324/6
f 166/327/23 168/331/23 167/328/23
f 168/331/24 170/373/24 169/332/24
f 170/335/25 172/374/25 171/336/25
f 171/336/26 172/374/26 138/339/26
